  0
SECTION
  2
HEADER
  9
$ACADVER
  1
AC1014
  9
$HANDSEED
  5
FFFF
  9
$MEASUREMENT
 70
     1
  0
ENDSEC
  0
SECTION
  2
TABLES
  0
TABLE
  2
VPORT
  5
8
330
0
100
AcDbSymbolTable
 70
     4
  0
VPORT
  5
2E
330
8
100
AcDbSymbolTableRecord
100
AcDbViewportTableRecord
  2
*ACTIVE
 70
     0
 10
0.0
 20
0.0
 11
1.0
 21
1.0
 12
210.0
 22
148.5
 13
0.0
 23
0.0
 14
10.0
 24
10.0
 15
10.0
 25
10.0
 16
0.0
 26
0.0
 36
1.0
 17
0.0
 27
0.0
 37
0.0
 40
341.0
 41
1.24
 42
50.0
 43
0.0
 44
0.0
 50
0.0
 51
0.0
 71
     0
 72
   100
 73
     1
 74
     3
 75
     0
 76
     0
 77
     0
 78
     0
  0
ENDTAB
  0
TABLE
  2
LTYPE
  5
5
330
0
100
AcDbSymbolTable
 70
     1
  0
LTYPE
  5
14
330
5
100
AcDbSymbolTableRecord
100
AcDbLinetypeTableRecord
  2
BYBLOCK
 70
     0
  3

 72
    65
 73
     0
 40
0.0
  0
LTYPE
  5
15
330
5
100
AcDbSymbolTableRecord
100
AcDbLinetypeTableRecord
  2
BYLAYER
 70
     0
  3

 72
    65
 73
     0
 40
0.0
  0
LTYPE
  5
16
330
5
100
AcDbSymbolTableRecord
100
AcDbLinetypeTableRecord
  2
CONTINUOUS
 70
     0
  3
Solid line
 72
    65
 73
     0
 40
0.0
  0
ENDTAB
  0
TABLE
  2
LAYER
  5
2
100
AcDbSymbolTable
 70
2
  0
LAYER
  5
50
100
AcDbSymbolTableRecord
100
AcDbLayerTableRecord
  2
0
 70
0
  6
CONTINUOUS
  0
LAYER
  5
51
100
AcDbSymbolTableRecord
100
AcDbLayerTableRecord
  2
Layer_1
 70
0
  6
CONTINUOUS
  0
ENDTAB
  0
TABLE
  2
STYLE
  5
3
330
0
100
AcDbSymbolTable
 70
     1
  0
STYLE
  5
11
330
3
100
AcDbSymbolTableRecord
100
AcDbTextStyleTableRecord
  2
STANDARD
 70
     0
 40
0.0
 41
1.0
 50
0.0
 71
     0
 42
2.5
  3
txt
  4

  0
ENDTAB
  0
TABLE
  2
VIEW
  5
6
330
0
100
AcDbSymbolTable
 70
     0
  0
ENDTAB
  0
TABLE
  2
UCS
  5
7
330
0
100
AcDbSymbolTable
 70
     0
  0
ENDTAB
  0
TABLE
  2
APPID
  5
9
330
0
100
AcDbSymbolTable
 70
     2
  0
APPID
  5
12
330
9
100
AcDbSymbolTableRecord
100
AcDbRegAppTableRecord
  2
ACAD
 70
     0
  0
ENDTAB
  0
TABLE
  2
DIMSTYLE
  5
A
330
0
100
AcDbSymbolTable
 70
     1
  0
DIMSTYLE
105
27
330
A
100
AcDbSymbolTableRecord
100
AcDbDimStyleTableRecord
  2
ISO-25
 70
     0
  3

  4

  5

  6

  7

 40
1.0
 41
2.5
 42
0.625
 43
3.75
 44
1.25
 45
0.0
 46
0.0
 47
0.0
 48
0.0
140
2.5
141
2.5
142
0.0
143
0.03937007874016
144
1.0
145
0.0
146
1.0
147
0.625
 71
     0
 72
     0
 73
     0
 74
     0
 75
     0
 76
     0
 77
     1
 78
     8
170
     0
171
     3
172
     1
173
     0
174
     0
175
     0
176
     0
177
     0
178
     0
270
     2
271
     2
272
     2
273
     2
274
     3
340
11
275
     0
280
     0
281
     0
282
     0
283
     0
284
     8
285
     0
286
     0
287
     3
288
     0
  0
ENDTAB
  0
TABLE
  2
BLOCK_RECORD
  5
1
330
0
100
AcDbSymbolTable
 70
     1
  0
BLOCK_RECORD
  5
1F
330
1
100
AcDbSymbolTableRecord
100
AcDbBlockTableRecord
  2
*MODEL_SPACE
  0
BLOCK_RECORD
  5
1B
330
1
100
AcDbSymbolTableRecord
100
AcDbBlockTableRecord
  2
*PAPER_SPACE
  0
ENDTAB
  0
ENDSEC
  0
SECTION
  2
BLOCKS
  0
BLOCK
  5
20
330
1F
100
AcDbEntity
  8
0
100
AcDbBlockBegin
  2
*MODEL_SPACE
 70
     0
 10
0.0
 20
0.0
 30
0.0
  3
*MODEL_SPACE
  1

  0
ENDBLK
  5
21
330
1F
100
AcDbEntity
  8
0
100
AcDbBlockEnd
  0
BLOCK
  5
1C
330
1B
100
AcDbEntity
 67
     1
  8
0
100
AcDbBlockBegin
  2
*PAPER_SPACE
  1

  0
ENDBLK
  5
1D
330
1B
100
AcDbEntity
 67
     1
  8
0
100
AcDbBlockEnd
  0
ENDSEC
  0
SECTION
  2
ENTITIES
  0
LINE
  5
100
100
AcDbEntity
  8
Layer_1
 62
7
100
AcDbLine
 10
188.351310
 20
180.493750
 30
0.0
 11
79.340630
 21
180.493750
 31
0.0
  0
LINE
  5
101
100
AcDbEntity
  8
Layer_1
 62
7
100
AcDbLine
 10
79.340625
 20
265.422839
 30
0.0
 11
192.364930
 21
265.422839
 31
0.0
  0
LINE
  5
102
100
AcDbEntity
  8
Layer_1
 62
7
100
AcDbLine
 10
152.811012
 20
242.995670
 30
0.0
 11
152.780332
 21
241.525050
 31
0.0
  0
LINE
  5
103
100
AcDbEntity
  8
Layer_1
 62
7
100
AcDbLine
 10
152.780332
 20
241.525050
 30
0.0
 11
152.596501
 21
240.023750
 31
0.0
  0
LINE
  5
104
100
AcDbEntity
  8
Layer_1
 62
7
100
AcDbLine
 10
152.596501
 20
240.023750
 30
0.0
 11
152.290137
 21
238.583780
 31
0.0
  0
SPLINE
  5
105
100
AcDbEntity
  8
Layer_1
 62
7
100
AcDbSpline
 70
8
 71
3
 72
8
 73
4
 74
0
 40
0
 40
0
 40
0
 40
0
 40
1
 40
1
 40
1
 40
1
 10
152.290137
 20
238.583780
 30
0.0
 10
150.446735
 20
230.650520
 30
0.0
 10
143.475007
 20
224.670450
 30
0.0
 10
135.347207
 20
224.091920
 30
0.0
  0
LINE
  5
106
100
AcDbEntity
  8
Layer_1
 62
7
100
AcDbLine
 10
135.347207
 20
224.091920
 30
0.0
 11
133.845936
 21
224.030720
 31
0.0
  0
LINE
  5
107
100
AcDbEntity
  8
Layer_1
 62
7
100
AcDbLine
 10
133.845936
 20
224.030720
 30
0.0
 11
132.344667
 21
224.091920
 31
0.0
  0
SPLINE
  5
108
100
AcDbEntity
  8
Layer_1
 62
7
100
AcDbSpline
 70
8
 71
3
 72
8
 73
4
 74
0
 40
0
 40
0
 40
0
 40
0
 40
1
 40
1
 40
1
 40
1
 10
132.344667
 20
224.091920
 30
0.0
 10
123.617376
 20
224.737840
 30
0.0
 10
116.465400
 20
231.399630
 30
0.0
 10
115.095361
 20
240.023750
 30
0.0
  0
LINE
  5
109
100
AcDbEntity
  8
Layer_1
 62
7
100
AcDbLine
 10
115.095361
 20
240.023750
 30
0.0
 11
114.911532
 21
241.525050
 31
0.0
  0
LINE
  5
10a
100
AcDbEntity
  8
Layer_1
 62
7
100
AcDbLine
 10
114.911532
 20
241.525050
 30
0.0
 11
114.850252
 21
242.995670
 31
0.0
  0
LINE
  5
10b
100
AcDbEntity
  8
Layer_1
 62
7
100
AcDbLine
 10
114.850252
 20
242.995670
 30
0.0
 11
114.911532
 21
244.496950
 31
0.0
  0
LINE
  5
10c
100
AcDbEntity
  8
Layer_1
 62
7
100
AcDbLine
 10
114.911532
 20
244.496950
 30
0.0
 11
115.095361
 21
245.967570
 31
0.0
  0
SPLINE
  5
10d
100
AcDbEntity
  8
Layer_1
 62
7
100
AcDbSpline
 70
8
 71
3
 72
8
 73
4
 74
0
 40
0
 40
0
 40
0
 40
0
 40
1
 40
1
 40
1
 40
1
 10
115.095361
 20
245.967570
 30
0.0
 10
116.330126
 20
254.021340
 30
0.0
 10
122.807550
 20
260.537064
 30
0.0
 10
130.874076
 20
261.746251
 30
0.0
  0
LINE
  5
10e
100
AcDbEntity
  8
Layer_1
 62
7
100
AcDbLine
 10
130.874076
 20
261.746251
 30
0.0
 11
132.344708
 21
261.930080
 31
0.0
  0
LINE
  5
10f
100
AcDbEntity
  8
Layer_1
 62
7
100
AcDbLine
 10
132.344708
 20
261.930080
 30
0.0
 11
133.845981
 21
261.991360
 31
0.0
  0
SPLINE
  5
110
100
AcDbEntity
  8
Layer_1
 62
7
100
AcDbSpline
 70
8
 71
3
 72
8
 73
4
 74
0
 40
0
 40
0
 40
0
 40
0
 40
1
 40
1
 40
1
 40
1
 10
133.845981
 20
261.991360
 30
0.0
 10
142.612078
 20
261.993360
 30
0.0
 10
150.260402
 20
255.965320
 30
0.0
 10
152.290176
 20
247.438200
 30
0.0
  0
LINE
  5
111
100
AcDbEntity
  8
Layer_1
 62
7
100
AcDbLine
 10
152.290176
 20
247.438200
 30
0.0
 11
152.596553
 21
245.967570
 31
0.0
  0
LINE
  5
112
100
AcDbEntity
  8
Layer_1
 62
7
100
AcDbLine
 10
152.596553
 20
245.967570
 30
0.0
 11
152.780383
 21
244.496950
 31
0.0
  0
LINE
  5
113
100
AcDbEntity
  8
Layer_1
 62
7
100
AcDbLine
 10
152.780383
 20
244.496950
 30
0.0
 11
152.811012
 21
242.995670
 31
0.0
  0
LINE
  5
114
100
AcDbEntity
  8
Layer_1
 62
7
100
AcDbLine
 10
152.811012
 20
202.920920
 30
0.0
 11
152.780332
 21
201.450280
 31
0.0
  0
LINE
  5
115
100
AcDbEntity
  8
Layer_1
 62
7
100
AcDbLine
 10
152.780332
 20
201.450280
 30
0.0
 11
152.596501
 21
199.948990
 31
0.0
  0
LINE
  5
116
100
AcDbEntity
  8
Layer_1
 62
7
100
AcDbLine
 10
152.596501
 20
199.948990
 30
0.0
 11
152.290137
 21
198.509020
 31
0.0
  0
SPLINE
  5
117
100
AcDbEntity
  8
Layer_1
 62
7
100
AcDbSpline
 70
8
 71
3
 72
8
 73
4
 74
0
 40
0
 40
0
 40
0
 40
0
 40
1
 40
1
 40
1
 40
1
 10
152.290137
 20
198.509020
 30
0.0
 10
150.446735
 20
190.575750
 30
0.0
 10
143.475007
 20
184.595680
 30
0.0
 10
135.347207
 20
184.017150
 30
0.0
  0
LINE
  5
118
100
AcDbEntity
  8
Layer_1
 62
7
100
AcDbLine
 10
135.347207
 20
184.017150
 30
0.0
 11
133.845936
 21
183.955950
 31
0.0
  0
LINE
  5
119
100
AcDbEntity
  8
Layer_1
 62
7
100
AcDbLine
 10
133.845936
 20
183.955950
 30
0.0
 11
132.344667
 21
184.017150
 31
0.0
  0
SPLINE
  5
11a
100
AcDbEntity
  8
Layer_1
 62
7
100
AcDbSpline
 70
8
 71
3
 72
8
 73
4
 74
0
 40
0
 40
0
 40
0
 40
0
 40
1
 40
1
 40
1
 40
1
 10
132.344667
 20
184.017150
 30
0.0
 10
123.617381
 20
184.663100
 30
0.0
 10
116.465405
 20
191.324870
 30
0.0
 10
115.095366
 20
199.948990
 30
0.0
  0
LINE
  5
11b
100
AcDbEntity
  8
Layer_1
 62
7
100
AcDbLine
 10
115.095366
 20
199.948990
 30
0.0
 11
114.911537
 21
201.450280
 31
0.0
  0
LINE
  5
11c
100
AcDbEntity
  8
Layer_1
 62
7
100
AcDbLine
 10
114.911537
 20
201.450280
 30
0.0
 11
114.850257
 21
202.920920
 31
0.0
  0
LINE
  5
11d
100
AcDbEntity
  8
Layer_1
 62
7
100
AcDbLine
 10
114.850257
 20
202.920920
 30
0.0
 11
114.911537
 21
204.422190
 31
0.0
  0
LINE
  5
11e
100
AcDbEntity
  8
Layer_1
 62
7
100
AcDbLine
 10
114.911537
 20
204.422190
 30
0.0
 11
115.095366
 21
205.892810
 31
0.0
  0
SPLINE
  5
11f
100
AcDbEntity
  8
Layer_1
 62
7
100
AcDbSpline
 70
8
 71
3
 72
8
 73
4
 74
0
 40
0
 40
0
 40
0
 40
0
 40
1
 40
1
 40
1
 40
1
 10
115.095366
 20
205.892810
 30
0.0
 10
116.346424
 20
213.979260
 30
0.0
 10
122.771256
 20
220.442370
 30
0.0
 10
130.874037
 20
221.671500
 30
0.0
  0
LINE
  5
120
100
AcDbEntity
  8
Layer_1
 62
7
100
AcDbLine
 10
130.874037
 20
221.671500
 30
0.0
 11
132.344672
 21
221.855320
 31
0.0
  0
LINE
  5
121
100
AcDbEntity
  8
Layer_1
 62
7
100
AcDbLine
 10
132.344672
 20
221.855320
 30
0.0
 11
133.845942
 21
221.916520
 31
0.0
  0
SPLINE
  5
122
100
AcDbEntity
  8
Layer_1
 62
7
100
AcDbSpline
 70
8
 71
3
 72
8
 73
4
 74
0
 40
0
 40
0
 40
0
 40
0
 40
1
 40
1
 40
1
 40
1
 10
133.845942
 20
221.916520
 30
0.0
 10
142.578345
 20
221.938020
 30
0.0
 10
150.299670
 20
215.875690
 30
0.0
 10
152.290142
 20
207.363390
 30
0.0
  0
LINE
  5
123
100
AcDbEntity
  8
Layer_1
 62
7
100
AcDbLine
 10
152.290142
 20
207.363390
 30
0.0
 11
152.596506
 21
205.892740
 31
0.0
  0
LINE
  5
124
100
AcDbEntity
  8
Layer_1
 62
7
100
AcDbLine
 10
152.596506
 20
205.892740
 30
0.0
 11
152.780337
 21
204.422130
 31
0.0
  0
LINE
  5
125
100
AcDbEntity
  8
Layer_1
 62
7
100
AcDbLine
 10
152.780337
 20
204.422130
 30
0.0
 11
152.811012
 21
202.920920
 31
0.0
  0
LINE
  5
126
100
AcDbEntity
  8
Layer_1
 62
7
100
AcDbLine
 10
197.481510
 20
260.336896
 30
0.0
 11
197.481510
 21
189.623930
 31
0.0
  0
LINE
  5
127
100
AcDbEntity
  8
Layer_1
 62
7
100
AcDbLine
 10
192.885760
 20
202.920920
 30
0.0
 11
192.824660
 21
201.450280
 31
0.0
  0
LINE
  5
128
100
AcDbEntity
  8
Layer_1
 62
7
100
AcDbLine
 10
192.824660
 20
201.450280
 30
0.0
 11
192.671460
 21
199.948990
 31
0.0
  0
LINE
  5
129
100
AcDbEntity
  8
Layer_1
 62
7
100
AcDbLine
 10
192.671460
 20
199.948990
 30
0.0
 11
192.365090
 21
198.509020
 31
0.0
  0
SPLINE
  5
12a
100
AcDbEntity
  8
Layer_1
 62
7
100
AcDbSpline
 70
8
 71
3
 72
8
 73
4
 74
0
 40
0
 40
0
 40
0
 40
0
 40
1
 40
1
 40
1
 40
1
 10
192.365090
 20
198.509020
 30
0.0
 10
190.519650
 20
190.565040
 30
0.0
 10
183.532100
 20
184.580880
 30
0.0
 10
175.391510
 20
184.017150
 30
0.0
  0
LINE
  5
12b
100
AcDbEntity
  8
Layer_1
 62
7
100
AcDbLine
 10
175.391510
 20
184.017150
 30
0.0
 11
173.920890
 21
183.955950
 31
0.0
  0
LINE
  5
12c
100
AcDbEntity
  8
Layer_1
 62
7
100
AcDbLine
 10
173.920890
 20
183.955950
 30
0.0
 11
172.419620
 21
184.017150
 31
0.0
  0
SPLINE
  5
12d
100
AcDbEntity
  8
Layer_1
 62
7
100
AcDbSpline
 70
8
 71
3
 72
8
 73
4
 74
0
 40
0
 40
0
 40
0
 40
0
 40
1
 40
1
 40
1
 40
1
 10
172.419620
 20
184.017150
 30
0.0
 10
163.727550
 20
184.647770
 30
0.0
 10
156.489286
 20
191.338150
 30
0.0
 10
155.170313
 20
199.948990
 30
0.0
  0
LINE
  5
12e
100
AcDbEntity
  8
Layer_1
 62
7
100
AcDbLine
 10
155.170313
 20
199.948990
 30
0.0
 11
154.986483
 21
201.450280
 31
0.0
  0
LINE
  5
12f
100
AcDbEntity
  8
Layer_1
 62
7
100
AcDbLine
 10
154.986483
 20
201.450280
 30
0.0
 11
154.925273
 21
202.920920
 31
0.0
  0
LINE
  5
130
100
AcDbEntity
  8
Layer_1
 62
7
100
AcDbLine
 10
154.925273
 20
202.920920
 30
0.0
 11
154.986483
 21
204.422190
 31
0.0
  0
SPLINE
  5
131
100
AcDbEntity
  8
Layer_1
 62
7
100
AcDbSpline
 70
8
 71
3
 72
8
 73
4
 74
0
 40
0
 40
0
 40
0
 40
0
 40
1
 40
1
 40
1
 40
1
 10
154.986483
 20
204.422190
 30
0.0
 10
157.457964
 20
226.807990
 30
0.0
 10
188.446470
 20
228.023810
 30
0.0
 10
192.671460
 20
205.892810
 30
0.0
  0
LINE
  5
132
100
AcDbEntity
  8
Layer_1
 62
7
100
AcDbLine
 10
192.671460
 20
205.892810
 30
0.0
 11
192.824660
 21
204.422190
 31
0.0
  0
LINE
  5
133
100
AcDbEntity
  8
Layer_1
 62
7
100
AcDbLine
 10
192.824660
 20
204.422190
 30
0.0
 11
192.885760
 21
202.920920
 31
0.0
  0
LINE
  5
134
100
AcDbEntity
  8
Layer_1
 62
7
100
AcDbLine
 10
192.364930
 20
265.422839
 30
0.0
 11
193.375990
 21
265.330909
 31
0.0
  0
SPLINE
  5
135
100
AcDbEntity
  8
Layer_1
 62
7
100
AcDbSpline
 70
8
 71
3
 72
8
 73
4
 74
0
 40
0
 40
0
 40
0
 40
0
 40
1
 40
1
 40
1
 40
1
 10
193.375990
 20
265.330909
 30
0.0
 10
195.410360
 20
264.954569
 30
0.0
 10
196.963720
 20
263.321551
 30
0.0
 10
197.389580
 20
261.317306
 30
0.0
  0
LINE
  5
136
100
AcDbEntity
  8
Layer_1
 62
7
100
AcDbLine
 10
197.389580
 20
261.317306
 30
0.0
 11
197.481380
 21
260.336882
 31
0.0
  0
LINE
  5
137
100
AcDbEntity
  8
Layer_1
 62
7
100
AcDbLine
 10
192.885760
 20
242.995670
 30
0.0
 11
192.824660
 21
241.525050
 31
0.0
  0
LINE
  5
138
100
AcDbEntity
  8
Layer_1
 62
7
100
AcDbLine
 10
192.824660
 20
241.525050
 30
0.0
 11
192.671460
 21
240.023750
 31
0.0
  0
LINE
  5
139
100
AcDbEntity
  8
Layer_1
 62
7
100
AcDbLine
 10
192.671460
 20
240.023750
 30
0.0
 11
192.365090
 21
238.583780
 31
0.0
  0
SPLINE
  5
13a
100
AcDbEntity
  8
Layer_1
 62
7
100
AcDbSpline
 70
8
 71
3
 72
8
 73
4
 74
0
 40
0
 40
0
 40
0
 40
0
 40
1
 40
1
 40
1
 40
1
 10
192.365090
 20
238.583780
 30
0.0
 10
190.519650
 20
230.639810
 30
0.0
 10
183.532100
 20
224.655660
 30
0.0
 10
175.391510
 20
224.091920
 30
0.0
  0
LINE
  5
13b
100
AcDbEntity
  8
Layer_1
 62
7
100
AcDbLine
 10
175.391510
 20
224.091920
 30
0.0
 11
173.920890
 21
224.030720
 31
0.0
  0
LINE
  5
13c
100
AcDbEntity
  8
Layer_1
 62
7
100
AcDbLine
 10
173.920890
 20
224.030720
 30
0.0
 11
172.419620
 21
224.091920
 31
0.0
  0
SPLINE
  5
13d
100
AcDbEntity
  8
Layer_1
 62
7
100
AcDbSpline
 70
8
 71
3
 72
8
 73
4
 74
0
 40
0
 40
0
 40
0
 40
0
 40
1
 40
1
 40
1
 40
1
 10
172.419620
 20
224.091920
 30
0.0
 10
163.727550
 20
224.722550
 30
0.0
 10
156.489286
 20
231.412890
 30
0.0
 10
155.170313
 20
240.023750
 30
0.0
  0
LINE
  5
13e
100
AcDbEntity
  8
Layer_1
 62
7
100
AcDbLine
 10
155.170313
 20
240.023750
 30
0.0
 11
154.986483
 21
241.525050
 31
0.0
  0
LINE
  5
13f
100
AcDbEntity
  8
Layer_1
 62
7
100
AcDbLine
 10
154.986483
 20
241.525050
 30
0.0
 11
154.925273
 21
242.995670
 31
0.0
  0
LINE
  5
140
100
AcDbEntity
  8
Layer_1
 62
7
100
AcDbLine
 10
154.925273
 20
242.995670
 30
0.0
 11
154.986483
 21
244.496950
 31
0.0
  0
LINE
  5
141
100
AcDbEntity
  8
Layer_1
 62
7
100
AcDbLine
 10
154.986483
 20
244.496950
 30
0.0
 11
155.170313
 21
245.967570
 31
0.0
  0
SPLINE
  5
142
100
AcDbEntity
  8
Layer_1
 62
7
100
AcDbSpline
 70
8
 71
3
 72
8
 73
4
 74
0
 40
0
 40
0
 40
0
 40
0
 40
1
 40
1
 40
1
 40
1
 10
155.170313
 20
245.967570
 30
0.0
 10
156.350877
 20
254.005000
 30
0.0
 10
162.921740
 20
260.558511
 30
0.0
 10
170.948940
 20
261.746251
 30
0.0
  0
LINE
  5
143
100
AcDbEntity
  8
Layer_1
 62
7
100
AcDbLine
 10
170.948940
 20
261.746251
 30
0.0
 11
172.419580
 21
261.930080
 31
0.0
  0
LINE
  5
144
100
AcDbEntity
  8
Layer_1
 62
7
100
AcDbLine
 10
172.419580
 20
261.930080
 30
0.0
 11
173.920850
 21
261.991360
 31
0.0
  0
SPLINE
  5
145
100
AcDbEntity
  8
Layer_1
 62
7
100
AcDbSpline
 70
8
 71
3
 72
8
 73
4
 74
0
 40
0
 40
0
 40
0
 40
0
 40
1
 40
1
 40
1
 40
1
 10
173.920850
 20
261.991360
 30
0.0
 10
182.695110
 20
261.984260
 30
0.0
 10
190.329640
 20
255.973490
 30
0.0
 10
192.365040
 20
247.438200
 30
0.0
  0
LINE
  5
146
100
AcDbEntity
  8
Layer_1
 62
7
100
AcDbLine
 10
192.365040
 20
247.438200
 30
0.0
 11
192.671420
 21
245.967570
 31
0.0
  0
LINE
  5
147
100
AcDbEntity
  8
Layer_1
 62
7
100
AcDbLine
 10
192.671420
 20
245.967570
 30
0.0
 11
192.824620
 21
244.496950
 31
0.0
  0
LINE
  5
148
100
AcDbEntity
  8
Layer_1
 62
7
100
AcDbLine
 10
192.824620
 20
244.496950
 30
0.0
 11
192.885760
 21
242.995670
 31
0.0
  0
LINE
  5
149
100
AcDbEntity
  8
Layer_1
 62
7
100
AcDbLine
 10
197.481510
 20
189.623930
 30
0.0
 11
197.389710
 21
188.643530
 31
0.0
  0
LINE
  5
14a
100
AcDbEntity
  8
Layer_1
 62
7
100
AcDbLine
 10
197.389710
 20
188.643530
 30
0.0
 11
197.083350
 21
187.663090
 31
0.0
  0
LINE
  5
14b
100
AcDbEntity
  8
Layer_1
 62
7
100
AcDbLine
 10
197.083350
 20
187.663090
 30
0.0
 11
196.623760
 21
186.805230
 31
0.0
  0
LINE
  5
14c
100
AcDbEntity
  8
Layer_1
 62
7
100
AcDbLine
 10
196.623760
 20
186.805230
 30
0.0
 11
195.980350
 21
186.008630
 31
0.0
  0
LINE
  5
14d
100
AcDbEntity
  8
Layer_1
 62
7
100
AcDbLine
 10
195.980230
 20
186.008630
 30
0.0
 11
191.966630
 21
181.995030
 31
0.0
  0
LINE
  5
14e
100
AcDbEntity
  8
Layer_1
 62
7
100
AcDbLine
 10
191.966620
 20
181.995030
 30
0.0
 11
191.200660
 21
181.351630
 31
0.0
  0
LINE
  5
14f
100
AcDbEntity
  8
Layer_1
 62
7
100
AcDbLine
 10
191.200660
 20
181.351630
 30
0.0
 11
190.312160
 21
180.892050
 31
0.0
  0
LINE
  5
150
100
AcDbEntity
  8
Layer_1
 62
7
100
AcDbLine
 10
190.312160
 20
180.892050
 30
0.0
 11
189.362370
 21
180.585680
 31
0.0
  0
LINE
  5
151
100
AcDbEntity
  8
Layer_1
 62
7
100
AcDbLine
 10
189.362370
 20
180.585680
 30
0.0
 11
188.351300
 21
180.493880
 31
0.0
  0
LINE
  5
152
100
AcDbEntity
  8
Layer_1
 62
7
100
AcDbLine
 10
70.210441
 20
189.623930
 30
0.0
 11
70.210441
 21
256.292650
 31
0.0
  0
LINE
  5
153
100
AcDbEntity
  8
Layer_1
 62
7
100
AcDbLine
 10
112.766897
 20
202.920920
 30
0.0
 11
112.705617
 21
201.450280
 31
0.0
  0
LINE
  5
154
100
AcDbEntity
  8
Layer_1
 62
7
100
AcDbLine
 10
112.705617
 20
201.450280
 30
0.0
 11
112.521789
 21
199.948990
 31
0.0
  0
SPLINE
  5
155
100
AcDbEntity
  8
Layer_1
 62
7
100
AcDbSpline
 70
8
 71
3
 72
8
 73
4
 74
0
 40
0
 40
0
 40
0
 40
0
 40
1
 40
1
 40
1
 40
1
 10
112.521789
 20
199.948990
 30
0.0
 10
108.169629
 20
177.821580
 30
0.0
 10
77.428287
 20
179.049180
 30
0.0
 10
74.836804
 20
201.450280
 30
0.0
  0
LINE
  5
156
100
AcDbEntity
  8
Layer_1
 62
7
100
AcDbLine
 10
74.836804
 20
201.450280
 30
0.0
 11
74.775524
 21
202.920920
 31
0.0
  0
LINE
  5
157
100
AcDbEntity
  8
Layer_1
 62
7
100
AcDbLine
 10
74.775524
 20
202.920920
 30
0.0
 11
74.836804
 21
204.422190
 31
0.0
  0
SPLINE
  5
158
100
AcDbEntity
  8
Layer_1
 62
7
100
AcDbSpline
 70
8
 71
3
 72
8
 73
4
 74
0
 40
0
 40
0
 40
0
 40
0
 40
1
 40
1
 40
1
 40
1
 10
74.836804
 20
204.422190
 30
0.0
 10
77.401221
 20
226.825370
 30
0.0
 10
108.242137
 20
228.028910
 30
0.0
 10
112.521786
 20
205.892810
 30
0.0
  0
LINE
  5
159
100
AcDbEntity
  8
Layer_1
 62
7
100
AcDbLine
 10
112.521786
 20
205.892810
 30
0.0
 11
112.705616
 21
204.422190
 31
0.0
  0
LINE
  5
15a
100
AcDbEntity
  8
Layer_1
 62
7
100
AcDbLine
 10
112.705616
 20
204.422190
 30
0.0
 11
112.766897
 21
202.920920
 31
0.0
  0
LINE
  5
15b
100
AcDbEntity
  8
Layer_1
 62
7
100
AcDbLine
 10
71.681073
 20
259.907964
 30
0.0
 11
75.725315
 21
263.952205
 31
0.0
  0
LINE
  5
15c
100
AcDbEntity
  8
Layer_1
 62
7
100
AcDbLine
 10
112.766897
 20
242.995670
 30
0.0
 11
112.705617
 21
241.525050
 31
0.0
  0
LINE
  5
15d
100
AcDbEntity
  8
Layer_1
 62
7
100
AcDbLine
 10
112.705617
 20
241.525050
 30
0.0
 11
112.521789
 21
240.023750
 31
0.0
  0
SPLINE
  5
15e
100
AcDbEntity
  8
Layer_1
 62
7
100
AcDbSpline
 70
8
 71
3
 72
8
 73
4
 74
0
 40
0
 40
0
 40
0
 40
0
 40
1
 40
1
 40
1
 40
1
 10
112.521789
 20
240.023750
 30
0.0
 10
108.169631
 20
217.896350
 30
0.0
 10
77.428289
 20
219.123930
 30
0.0
 10
74.836806
 20
241.525050
 30
0.0
  0
LINE
  5
15f
100
AcDbEntity
  8
Layer_1
 62
7
100
AcDbLine
 10
74.836806
 20
241.525050
 30
0.0
 11
74.775526
 21
242.995670
 31
0.0
  0
LINE
  5
160
100
AcDbEntity
  8
Layer_1
 62
7
100
AcDbLine
 10
74.775526
 20
242.995670
 30
0.0
 11
74.836806
 21
244.496950
 31
0.0
  0
SPLINE
  5
161
100
AcDbEntity
  8
Layer_1
 62
7
100
AcDbSpline
 70
8
 71
3
 72
8
 73
4
 74
0
 40
0
 40
0
 40
0
 40
0
 40
1
 40
1
 40
1
 40
1
 10
74.836806
 20
244.496950
 30
0.0
 10
77.445139
 20
266.904192
 30
0.0
 10
108.196184
 20
268.108272
 30
0.0
 10
112.521788
 20
245.967570
 30
0.0
  0
LINE
  5
162
100
AcDbEntity
  8
Layer_1
 62
7
100
AcDbLine
 10
112.521788
 20
245.967570
 30
0.0
 11
112.705618
 21
244.496950
 31
0.0
  0
LINE
  5
163
100
AcDbEntity
  8
Layer_1
 62
7
100
AcDbLine
 10
112.705618
 20
244.496950
 30
0.0
 11
112.766897
 21
242.995670
 31
0.0
  0
LINE
  5
164
100
AcDbEntity
  8
Layer_1
 62
7
100
AcDbLine
 10
75.725315
 20
263.952205
 30
0.0
 11
76.491272
 21
264.564966
 31
0.0
  0
LINE
  5
165
100
AcDbEntity
  8
Layer_1
 62
7
100
AcDbLine
 10
76.491272
 20
264.564966
 30
0.0
 11
77.379779
 21
265.055179
 31
0.0
  0
LINE
  5
166
100
AcDbEntity
  8
Layer_1
 62
7
100
AcDbLine
 10
77.379779
 20
265.055179
 30
0.0
 11
78.329562
 21
265.330923
 31
0.0
  0
LINE
  5
167
100
AcDbEntity
  8
Layer_1
 62
7
100
AcDbLine
 10
78.329562
 20
265.330923
 30
0.0
 11
79.340625
 21
265.422853
 31
0.0
  0
LINE
  5
168
100
AcDbEntity
  8
Layer_1
 62
7
100
AcDbLine
 10
70.210441
 20
256.292650
 30
0.0
 11
70.302350
 21
257.303718
 31
0.0
  0
LINE
  5
169
100
AcDbEntity
  8
Layer_1
 62
7
100
AcDbLine
 10
70.302350
 20
257.303718
 30
0.0
 11
70.578094
 21
258.253502
 31
0.0
  0
LINE
  5
16a
100
AcDbEntity
  8
Layer_1
 62
7
100
AcDbLine
 10
70.578094
 20
258.253502
 30
0.0
 11
71.068306
 21
259.142008
 31
0.0
  0
LINE
  5
16b
100
AcDbEntity
  8
Layer_1
 62
7
100
AcDbLine
 10
71.068306
 20
259.142008
 30
0.0
 11
71.681069
 21
259.907965
 31
0.0
  0
LINE
  5
16c
100
AcDbEntity
  8
Layer_1
 62
7
100
AcDbLine
 10
71.681073
 20
186.008630
 30
0.0
 11
71.068311
 21
186.805220
 31
0.0
  0
LINE
  5
16d
100
AcDbEntity
  8
Layer_1
 62
7
100
AcDbLine
 10
71.068311
 20
186.805220
 30
0.0
 11
70.578098
 21
187.663090
 31
0.0
  0
LINE
  5
16e
100
AcDbEntity
  8
Layer_1
 62
7
100
AcDbLine
 10
70.578098
 20
187.663090
 30
0.0
 11
70.302355
 21
188.643510
 31
0.0
  0
LINE
  5
16f
100
AcDbEntity
  8
Layer_1
 62
7
100
AcDbLine
 10
70.302355
 20
188.643510
 30
0.0
 11
70.210445
 21
189.623930
 31
0.0
  0
LINE
  5
170
100
AcDbEntity
  8
Layer_1
 62
7
100
AcDbLine
 10
79.340625
 20
180.493750
 30
0.0
 11
78.329562
 21
180.585550
 31
0.0
  0
LINE
  5
171
100
AcDbEntity
  8
Layer_1
 62
7
100
AcDbLine
 10
78.329562
 20
180.585550
 30
0.0
 11
77.379779
 21
180.891940
 31
0.0
  0
LINE
  5
172
100
AcDbEntity
  8
Layer_1
 62
7
100
AcDbLine
 10
77.379779
 20
180.891940
 30
0.0
 11
76.491272
 21
181.351520
 31
0.0
  0
LINE
  5
173
100
AcDbEntity
  8
Layer_1
 62
7
100
AcDbLine
 10
76.491272
 20
181.351520
 30
0.0
 11
75.725315
 21
181.994910
 31
0.0
  0
LINE
  5
174
100
AcDbEntity
  8
Layer_1
 62
7
100
AcDbLine
 10
75.725315
 20
181.995030
 30
0.0
 11
71.681073
 21
186.008630
 31
0.0
  0
SPLINE
  5
175
100
AcDbEntity
  8
Layer_1
 62
5
100
AcDbSpline
 70
8
 71
3
 72
8
 73
4
 74
0
 40
0
 40
0
 40
0
 40
0
 40
1
 40
1
 40
1
 40
1
 10
76.550000
 20
260.913373
 30
0.0
 10
75.958121
 20
260.913373
 30
0.0
 10
75.424523
 20
260.556834
 30
0.0
 10
75.198020
 20
260.010009
 30
0.0
  0
SPLINE
  5
176
100
AcDbEntity
  8
Layer_1
 62
5
100
AcDbSpline
 70
8
 71
3
 72
8
 73
4
 74
0
 40
0
 40
0
 40
0
 40
0
 40
1
 40
1
 40
1
 40
1
 10
75.198020
 20
260.010009
 30
0.0
 10
74.971518
 20
259.463185
 30
0.0
 10
75.096718
 20
258.833762
 30
0.0
 10
75.515240
 20
258.415241
 30
0.0
  0
SPLINE
  5
177
100
AcDbEntity
  8
Layer_1
 62
5
100
AcDbSpline
 70
8
 71
3
 72
8
 73
4
 74
0
 40
0
 40
0
 40
0
 40
0
 40
1
 40
1
 40
1
 40
1
 10
75.515240
 20
258.415241
 30
0.0
 10
75.933761
 20
257.996719
 30
0.0
 10
76.563184
 20
257.871519
 30
0.0
 10
77.110008
 20
258.098021
 30
0.0
  0
SPLINE
  5
178
100
AcDbEntity
  8
Layer_1
 62
5
100
AcDbSpline
 70
8
 71
3
 72
8
 73
4
 74
0
 40
0
 40
0
 40
0
 40
0
 40
1
 40
1
 40
1
 40
1
 10
77.110008
 20
258.098021
 30
0.0
 10
77.656833
 20
258.324524
 30
0.0
 10
78.013372
 20
258.858122
 30
0.0
 10
78.013372
 20
259.450001
 30
0.0
  0
SPLINE
  5
179
100
AcDbEntity
  8
Layer_1
 62
5
100
AcDbSpline
 70
8
 71
3
 72
8
 73
4
 74
0
 40
0
 40
0
 40
0
 40
0
 40
1
 40
1
 40
1
 40
1
 10
78.013372
 20
259.450001
 30
0.0
 10
78.013372
 20
259.838111
 30
0.0
 10
77.859196
 20
260.210326
 30
0.0
 10
77.584760
 20
260.484761
 30
0.0
  0
SPLINE
  5
17a
100
AcDbEntity
  8
Layer_1
 62
5
100
AcDbSpline
 70
8
 71
3
 72
8
 73
4
 74
0
 40
0
 40
0
 40
0
 40
0
 40
1
 40
1
 40
1
 40
1
 10
77.584760
 20
260.484761
 30
0.0
 10
77.310325
 20
260.759197
 30
0.0
 10
76.938110
 20
260.913373
 30
0.0
 10
76.550000
 20
260.913373
 30
0.0
  0
LINE
  5
17b
100
AcDbEntity
  8
Layer_1
 62
5
100
AcDbLine
 10
76.550000
 20
260.913373
 30
0.0
 11
76.550000
 21
260.913373
 31
0.0
  0
SPLINE
  5
17c
100
AcDbEntity
  8
Layer_1
 62
5
100
AcDbSpline
 70
8
 71
3
 72
8
 73
4
 74
0
 40
0
 40
0
 40
0
 40
0
 40
1
 40
1
 40
1
 40
1
 10
192.550000
 20
260.913373
 30
0.0
 10
191.958121
 20
260.913373
 30
0.0
 10
191.424523
 20
260.556834
 30
0.0
 10
191.198020
 20
260.010009
 30
0.0
  0
SPLINE
  5
17d
100
AcDbEntity
  8
Layer_1
 62
5
100
AcDbSpline
 70
8
 71
3
 72
8
 73
4
 74
0
 40
0
 40
0
 40
0
 40
0
 40
1
 40
1
 40
1
 40
1
 10
191.198020
 20
260.010009
 30
0.0
 10
190.971518
 20
259.463185
 30
0.0
 10
191.096718
 20
258.833762
 30
0.0
 10
191.515240
 20
258.415241
 30
0.0
  0
SPLINE
  5
17e
100
AcDbEntity
  8
Layer_1
 62
5
100
AcDbSpline
 70
8
 71
3
 72
8
 73
4
 74
0
 40
0
 40
0
 40
0
 40
0
 40
1
 40
1
 40
1
 40
1
 10
191.515240
 20
258.415241
 30
0.0
 10
191.933761
 20
257.996719
 30
0.0
 10
192.563184
 20
257.871519
 30
0.0
 10
193.110008
 20
258.098021
 30
0.0
  0
SPLINE
  5
17f
100
AcDbEntity
  8
Layer_1
 62
5
100
AcDbSpline
 70
8
 71
3
 72
8
 73
4
 74
0
 40
0
 40
0
 40
0
 40
0
 40
1
 40
1
 40
1
 40
1
 10
193.110008
 20
258.098021
 30
0.0
 10
193.656833
 20
258.324524
 30
0.0
 10
194.013372
 20
258.858122
 30
0.0
 10
194.013372
 20
259.450001
 30
0.0
  0
SPLINE
  5
180
100
AcDbEntity
  8
Layer_1
 62
5
100
AcDbSpline
 70
8
 71
3
 72
8
 73
4
 74
0
 40
0
 40
0
 40
0
 40
0
 40
1
 40
1
 40
1
 40
1
 10
194.013372
 20
259.450001
 30
0.0
 10
194.013372
 20
259.838111
 30
0.0
 10
193.859196
 20
260.210326
 30
0.0
 10
193.584760
 20
260.484761
 30
0.0
  0
SPLINE
  5
181
100
AcDbEntity
  8
Layer_1
 62
5
100
AcDbSpline
 70
8
 71
3
 72
8
 73
4
 74
0
 40
0
 40
0
 40
0
 40
0
 40
1
 40
1
 40
1
 40
1
 10
193.584760
 20
260.484761
 30
0.0
 10
193.310325
 20
260.759197
 30
0.0
 10
192.938110
 20
260.913373
 30
0.0
 10
192.550000
 20
260.913373
 30
0.0
  0
LINE
  5
182
100
AcDbEntity
  8
Layer_1
 62
5
100
AcDbLine
 10
192.550000
 20
260.913373
 30
0.0
 11
192.550000
 21
260.913373
 31
0.0
  0
SPLINE
  5
183
100
AcDbEntity
  8
Layer_1
 62
5
100
AcDbSpline
 70
8
 71
3
 72
8
 73
4
 74
0
 40
0
 40
0
 40
0
 40
0
 40
1
 40
1
 40
1
 40
1
 10
76.550000
 20
188.913372
 30
0.0
 10
75.958121
 20
188.913372
 30
0.0
 10
75.424523
 20
188.556833
 30
0.0
 10
75.198020
 20
188.010008
 30
0.0
  0
SPLINE
  5
184
100
AcDbEntity
  8
Layer_1
 62
5
100
AcDbSpline
 70
8
 71
3
 72
8
 73
4
 74
0
 40
0
 40
0
 40
0
 40
0
 40
1
 40
1
 40
1
 40
1
 10
75.198020
 20
188.010008
 30
0.0
 10
74.971518
 20
187.463184
 30
0.0
 10
75.096718
 20
186.833761
 30
0.0
 10
75.515240
 20
186.415240
 30
0.0
  0
SPLINE
  5
185
100
AcDbEntity
  8
Layer_1
 62
5
100
AcDbSpline
 70
8
 71
3
 72
8
 73
4
 74
0
 40
0
 40
0
 40
0
 40
0
 40
1
 40
1
 40
1
 40
1
 10
75.515240
 20
186.415240
 30
0.0
 10
75.933761
 20
185.996718
 30
0.0
 10
76.563184
 20
185.871518
 30
0.0
 10
77.110008
 20
186.098020
 30
0.0
  0
SPLINE
  5
186
100
AcDbEntity
  8
Layer_1
 62
5
100
AcDbSpline
 70
8
 71
3
 72
8
 73
4
 74
0
 40
0
 40
0
 40
0
 40
0
 40
1
 40
1
 40
1
 40
1
 10
77.110008
 20
186.098020
 30
0.0
 10
77.656833
 20
186.324523
 30
0.0
 10
78.013372
 20
186.858121
 30
0.0
 10
78.013372
 20
187.450000
 30
0.0
  0
SPLINE
  5
187
100
AcDbEntity
  8
Layer_1
 62
5
100
AcDbSpline
 70
8
 71
3
 72
8
 73
4
 74
0
 40
0
 40
0
 40
0
 40
0
 40
1
 40
1
 40
1
 40
1
 10
78.013372
 20
187.450000
 30
0.0
 10
78.013372
 20
187.838110
 30
0.0
 10
77.859196
 20
188.210325
 30
0.0
 10
77.584760
 20
188.484760
 30
0.0
  0
SPLINE
  5
188
100
AcDbEntity
  8
Layer_1
 62
5
100
AcDbSpline
 70
8
 71
3
 72
8
 73
4
 74
0
 40
0
 40
0
 40
0
 40
0
 40
1
 40
1
 40
1
 40
1
 10
77.584760
 20
188.484760
 30
0.0
 10
77.310325
 20
188.759196
 30
0.0
 10
76.938110
 20
188.913372
 30
0.0
 10
76.550000
 20
188.913372
 30
0.0
  0
LINE
  5
189
100
AcDbEntity
  8
Layer_1
 62
5
100
AcDbLine
 10
76.550000
 20
188.913372
 30
0.0
 11
76.550000
 21
188.913372
 31
0.0
  0
SPLINE
  5
18a
100
AcDbEntity
  8
Layer_1
 62
5
100
AcDbSpline
 70
8
 71
3
 72
8
 73
4
 74
0
 40
0
 40
0
 40
0
 40
0
 40
1
 40
1
 40
1
 40
1
 10
192.550000
 20
188.913372
 30
0.0
 10
191.958121
 20
188.913372
 30
0.0
 10
191.424523
 20
188.556833
 30
0.0
 10
191.198020
 20
188.010008
 30
0.0
  0
SPLINE
  5
18b
100
AcDbEntity
  8
Layer_1
 62
5
100
AcDbSpline
 70
8
 71
3
 72
8
 73
4
 74
0
 40
0
 40
0
 40
0
 40
0
 40
1
 40
1
 40
1
 40
1
 10
191.198020
 20
188.010008
 30
0.0
 10
190.971518
 20
187.463184
 30
0.0
 10
191.096718
 20
186.833761
 30
0.0
 10
191.515240
 20
186.415240
 30
0.0
  0
SPLINE
  5
18c
100
AcDbEntity
  8
Layer_1
 62
5
100
AcDbSpline
 70
8
 71
3
 72
8
 73
4
 74
0
 40
0
 40
0
 40
0
 40
0
 40
1
 40
1
 40
1
 40
1
 10
191.515240
 20
186.415240
 30
0.0
 10
191.933761
 20
185.996718
 30
0.0
 10
192.563184
 20
185.871518
 30
0.0
 10
193.110008
 20
186.098020
 30
0.0
  0
SPLINE
  5
18d
100
AcDbEntity
  8
Layer_1
 62
5
100
AcDbSpline
 70
8
 71
3
 72
8
 73
4
 74
0
 40
0
 40
0
 40
0
 40
0
 40
1
 40
1
 40
1
 40
1
 10
193.110008
 20
186.098020
 30
0.0
 10
193.656833
 20
186.324523
 30
0.0
 10
194.013372
 20
186.858121
 30
0.0
 10
194.013372
 20
187.450000
 30
0.0
  0
SPLINE
  5
18e
100
AcDbEntity
  8
Layer_1
 62
5
100
AcDbSpline
 70
8
 71
3
 72
8
 73
4
 74
0
 40
0
 40
0
 40
0
 40
0
 40
1
 40
1
 40
1
 40
1
 10
194.013372
 20
187.450000
 30
0.0
 10
194.013372
 20
187.838110
 30
0.0
 10
193.859196
 20
188.210325
 30
0.0
 10
193.584760
 20
188.484760
 30
0.0
  0
SPLINE
  5
18f
100
AcDbEntity
  8
Layer_1
 62
5
100
AcDbSpline
 70
8
 71
3
 72
8
 73
4
 74
0
 40
0
 40
0
 40
0
 40
0
 40
1
 40
1
 40
1
 40
1
 10
193.584760
 20
188.484760
 30
0.0
 10
193.310325
 20
188.759196
 30
0.0
 10
192.938110
 20
188.913372
 30
0.0
 10
192.550000
 20
188.913372
 30
0.0
  0
LINE
  5
190
100
AcDbEntity
  8
Layer_1
 62
5
100
AcDbLine
 10
192.550000
 20
188.913372
 30
0.0
 11
192.550000
 21
188.913372
 31
0.0
  0
LINE
  5
191
100
AcDbEntity
  8
Layer_1
 62
7
100
AcDbLine
 10
59.308523
 20
181.606107
 30
0.0
 11
19.999925
 21
181.606107
 31
0.0
  0
LINE
  5
192
100
AcDbEntity
  8
Layer_1
 62
7
100
AcDbLine
 10
19.999924
 20
212.231027
 30
0.0
 11
60.755810
 21
212.231027
 31
0.0
  0
LINE
  5
193
100
AcDbEntity
  8
Layer_1
 62
7
100
AcDbLine
 10
46.492904
 20
204.143924
 30
0.0
 11
46.481841
 21
203.613628
 31
0.0
  0
LINE
  5
194
100
AcDbEntity
  8
Layer_1
 62
7
100
AcDbLine
 10
46.481841
 20
203.613628
 30
0.0
 11
46.415553
 21
203.072268
 31
0.0
  0
LINE
  5
195
100
AcDbEntity
  8
Layer_1
 62
7
100
AcDbLine
 10
46.415553
 20
203.072268
 30
0.0
 11
46.305080
 21
202.553023
 31
0.0
  0
SPLINE
  5
196
100
AcDbEntity
  8
Layer_1
 62
7
100
AcDbSpline
 70
8
 71
3
 72
8
 73
4
 74
0
 40
0
 40
0
 40
0
 40
0
 40
1
 40
1
 40
1
 40
1
 10
46.305080
 20
202.553023
 30
0.0
 10
45.640360
 20
199.692337
 30
0.0
 10
43.126397
 20
197.535960
 30
0.0
 10
40.195561
 20
197.327346
 30
0.0
  0
LINE
  5
197
100
AcDbEntity
  8
Layer_1
 62
7
100
AcDbLine
 10
40.195561
 20
197.327346
 30
0.0
 11
39.654212
 21
197.305277
 31
0.0
  0
LINE
  5
198
100
AcDbEntity
  8
Layer_1
 62
7
100
AcDbLine
 10
39.654212
 20
197.305277
 30
0.0
 11
39.112863
 21
197.327346
 31
0.0
  0
SPLINE
  5
199
100
AcDbEntity
  8
Layer_1
 62
7
100
AcDbSpline
 70
8
 71
3
 72
8
 73
4
 74
0
 40
0
 40
0
 40
0
 40
0
 40
1
 40
1
 40
1
 40
1
 10
39.112863
 20
197.327346
 30
0.0
 10
35.965854
 20
197.560260
 30
0.0
 10
33.386895
 20
199.962462
 30
0.0
 10
32.892867
 20
203.072268
 30
0.0
  0
LINE
  5
19a
100
AcDbEntity
  8
Layer_1
 62
7
100
AcDbLine
 10
32.892867
 20
203.072268
 30
0.0
 11
32.826579
 21
203.613628
 31
0.0
  0
LINE
  5
19b
100
AcDbEntity
  8
Layer_1
 62
7
100
AcDbLine
 10
32.826579
 20
203.613628
 30
0.0
 11
32.804482
 21
204.143924
 31
0.0
  0
LINE
  5
19c
100
AcDbEntity
  8
Layer_1
 62
7
100
AcDbLine
 10
32.804482
 20
204.143924
 30
0.0
 11
32.826579
 21
204.685277
 31
0.0
  0
LINE
  5
19d
100
AcDbEntity
  8
Layer_1
 62
7
100
AcDbLine
 10
32.826579
 20
204.685277
 30
0.0
 11
32.892867
 21
205.215574
 31
0.0
  0
SPLINE
  5
19e
100
AcDbEntity
  8
Layer_1
 62
7
100
AcDbSpline
 70
8
 71
3
 72
8
 73
4
 74
0
 40
0
 40
0
 40
0
 40
0
 40
1
 40
1
 40
1
 40
1
 10
32.892867
 20
205.215574
 30
0.0
 10
33.338116
 20
208.119715
 30
0.0
 10
35.673836
 20
210.469246
 30
0.0
 10
38.582577
 20
210.905271
 30
0.0
  0
LINE
  5
19f
100
AcDbEntity
  8
Layer_1
 62
7
100
AcDbLine
 10
38.582577
 20
210.905271
 30
0.0
 11
39.112878
 21
210.971559
 31
0.0
  0
LINE
  5
1a0
100
AcDbEntity
  8
Layer_1
 62
7
100
AcDbLine
 10
39.112878
 20
210.971559
 30
0.0
 11
39.654228
 21
210.993656
 31
0.0
  0
SPLINE
  5
1a1
100
AcDbEntity
  8
Layer_1
 62
7
100
AcDbSpline
 70
8
 71
3
 72
8
 73
4
 74
0
 40
0
 40
0
 40
0
 40
0
 40
1
 40
1
 40
1
 40
1
 10
39.654228
 20
210.993656
 30
0.0
 10
42.815230
 20
210.994377
 30
0.0
 10
45.573170
 20
208.820702
 30
0.0
 10
46.305094
 20
205.745874
 30
0.0
  0
LINE
  5
1a2
100
AcDbEntity
  8
Layer_1
 62
7
100
AcDbLine
 10
46.305094
 20
205.745874
 30
0.0
 11
46.415572
 21
205.215574
 31
0.0
  0
LINE
  5
1a3
100
AcDbEntity
  8
Layer_1
 62
7
100
AcDbLine
 10
46.415572
 20
205.215574
 30
0.0
 11
46.481860
 21
204.685277
 31
0.0
  0
LINE
  5
1a4
100
AcDbEntity
  8
Layer_1
 62
7
100
AcDbLine
 10
46.481860
 20
204.685277
 30
0.0
 11
46.492904
 21
204.143924
 31
0.0
  0
LINE
  5
1a5
100
AcDbEntity
  8
Layer_1
 62
7
100
AcDbLine
 10
46.492904
 20
189.693210
 30
0.0
 11
46.481841
 21
189.162906
 31
0.0
  0
LINE
  5
1a6
100
AcDbEntity
  8
Layer_1
 62
7
100
AcDbLine
 10
46.481841
 20
189.162906
 30
0.0
 11
46.415553
 21
188.621550
 31
0.0
  0
LINE
  5
1a7
100
AcDbEntity
  8
Layer_1
 62
7
100
AcDbLine
 10
46.415553
 20
188.621550
 30
0.0
 11
46.305080
 21
188.102305
 31
0.0
  0
SPLINE
  5
1a8
100
AcDbEntity
  8
Layer_1
 62
7
100
AcDbSpline
 70
8
 71
3
 72
8
 73
4
 74
0
 40
0
 40
0
 40
0
 40
0
 40
1
 40
1
 40
1
 40
1
 10
46.305080
 20
188.102305
 30
0.0
 10
45.640360
 20
185.241616
 30
0.0
 10
43.126397
 20
183.085238
 30
0.0
 10
40.195561
 20
182.876624
 30
0.0
  0
LINE
  5
1a9
100
AcDbEntity
  8
Layer_1
 62
7
100
AcDbLine
 10
40.195561
 20
182.876624
 30
0.0
 11
39.654212
 21
182.854556
 31
0.0
  0
LINE
  5
1aa
100
AcDbEntity
  8
Layer_1
 62
7
100
AcDbLine
 10
39.654212
 20
182.854556
 30
0.0
 11
39.112863
 21
182.876624
 31
0.0
  0
SPLINE
  5
1ab
100
AcDbEntity
  8
Layer_1
 62
7
100
AcDbSpline
 70
8
 71
3
 72
8
 73
4
 74
0
 40
0
 40
0
 40
0
 40
0
 40
1
 40
1
 40
1
 40
1
 10
39.112863
 20
182.876624
 30
0.0
 10
35.965856
 20
183.109550
 30
0.0
 10
33.386896
 20
185.511744
 30
0.0
 10
32.892869
 20
188.621550
 30
0.0
  0
LINE
  5
1ac
100
AcDbEntity
  8
Layer_1
 62
7
100
AcDbLine
 10
32.892869
 20
188.621550
 30
0.0
 11
32.826581
 21
189.162906
 31
0.0
  0
LINE
  5
1ad
100
AcDbEntity
  8
Layer_1
 62
7
100
AcDbLine
 10
32.826581
 20
189.162906
 30
0.0
 11
32.804484
 21
189.693210
 31
0.0
  0
LINE
  5
1ae
100
AcDbEntity
  8
Layer_1
 62
7
100
AcDbLine
 10
32.804484
 20
189.693210
 30
0.0
 11
32.826581
 21
190.234559
 31
0.0
  0
LINE
  5
1af
100
AcDbEntity
  8
Layer_1
 62
7
100
AcDbLine
 10
32.826581
 20
190.234559
 30
0.0
 11
32.892869
 21
190.764856
 31
0.0
  0
SPLINE
  5
1b0
100
AcDbEntity
  8
Layer_1
 62
7
100
AcDbSpline
 70
8
 71
3
 72
8
 73
4
 74
0
 40
0
 40
0
 40
0
 40
0
 40
1
 40
1
 40
1
 40
1
 10
32.892869
 20
190.764856
 30
0.0
 10
33.343993
 20
193.680781
 30
0.0
 10
35.660749
 20
196.011340
 30
0.0
 10
38.582563
 20
196.454557
 30
0.0
  0
LINE
  5
1b1
100
AcDbEntity
  8
Layer_1
 62
7
100
AcDbLine
 10
38.582563
 20
196.454557
 30
0.0
 11
39.112865
 21
196.520841
 31
0.0
  0
LINE
  5
1b2
100
AcDbEntity
  8
Layer_1
 62
7
100
AcDbLine
 10
39.112865
 20
196.520841
 30
0.0
 11
39.654214
 21
196.542909
 31
0.0
  0
SPLINE
  5
1b3
100
AcDbEntity
  8
Layer_1
 62
7
100
AcDbSpline
 70
8
 71
3
 72
8
 73
4
 74
0
 40
0
 40
0
 40
0
 40
0
 40
1
 40
1
 40
1
 40
1
 10
39.654214
 20
196.542909
 30
0.0
 10
42.803066
 20
196.550662
 30
0.0
 10
45.587329
 20
194.364622
 30
0.0
 10
46.305082
 20
191.295138
 30
0.0
  0
LINE
  5
1b4
100
AcDbEntity
  8
Layer_1
 62
7
100
AcDbLine
 10
46.305082
 20
191.295138
 30
0.0
 11
46.415555
 21
190.764830
 31
0.0
  0
LINE
  5
1b5
100
AcDbEntity
  8
Layer_1
 62
7
100
AcDbLine
 10
46.415555
 20
190.764830
 30
0.0
 11
46.481843
 21
190.234537
 31
0.0
  0
LINE
  5
1b6
100
AcDbEntity
  8
Layer_1
 62
7
100
AcDbLine
 10
46.481843
 20
190.234537
 30
0.0
 11
46.492904
 21
189.693210
 31
0.0
  0
LINE
  5
1b7
100
AcDbEntity
  8
Layer_1
 62
7
100
AcDbLine
 10
62.600818
 20
210.397066
 30
0.0
 11
62.600818
 21
184.898395
 31
0.0
  0
LINE
  5
1b8
100
AcDbEntity
  8
Layer_1
 62
7
100
AcDbLine
 10
60.943618
 20
189.693210
 30
0.0
 11
60.921586
 21
189.162906
 31
0.0
  0
LINE
  5
1b9
100
AcDbEntity
  8
Layer_1
 62
7
100
AcDbLine
 10
60.921586
 20
189.162906
 30
0.0
 11
60.866343
 21
188.621550
 31
0.0
  0
LINE
  5
1ba
100
AcDbEntity
  8
Layer_1
 62
7
100
AcDbLine
 10
60.866343
 20
188.621550
 30
0.0
 11
60.755867
 21
188.102305
 31
0.0
  0
SPLINE
  5
1bb
100
AcDbEntity
  8
Layer_1
 62
7
100
AcDbSpline
 70
8
 71
3
 72
8
 73
4
 74
0
 40
0
 40
0
 40
0
 40
0
 40
1
 40
1
 40
1
 40
1
 10
60.755867
 20
188.102305
 30
0.0
 10
60.090413
 20
185.237754
 30
0.0
 10
57.570744
 20
183.079902
 30
0.0
 10
54.635296
 20
182.876624
 30
0.0
  0
LINE
  5
1bc
100
AcDbEntity
  8
Layer_1
 62
7
100
AcDbLine
 10
54.635296
 20
182.876624
 30
0.0
 11
54.105000
 21
182.854556
 31
0.0
  0
LINE
  5
1bd
100
AcDbEntity
  8
Layer_1
 62
7
100
AcDbLine
 10
54.105000
 20
182.854556
 30
0.0
 11
53.563651
 21
182.876624
 31
0.0
  0
SPLINE
  5
1be
100
AcDbEntity
  8
Layer_1
 62
7
100
AcDbSpline
 70
8
 71
3
 72
8
 73
4
 74
0
 40
0
 40
0
 40
0
 40
0
 40
1
 40
1
 40
1
 40
1
 10
53.563651
 20
182.876624
 30
0.0
 10
50.429342
 20
183.104022
 30
0.0
 10
47.819268
 20
185.516533
 30
0.0
 10
47.343654
 20
188.621550
 30
0.0
  0
LINE
  5
1bf
100
AcDbEntity
  8
Layer_1
 62
7
100
AcDbLine
 10
47.343654
 20
188.621550
 30
0.0
 11
47.277366
 21
189.162906
 31
0.0
  0
LINE
  5
1c0
100
AcDbEntity
  8
Layer_1
 62
7
100
AcDbLine
 10
47.277366
 20
189.162906
 30
0.0
 11
47.255294
 21
189.693210
 31
0.0
  0
LINE
  5
1c1
100
AcDbEntity
  8
Layer_1
 62
7
100
AcDbLine
 10
47.255294
 20
189.693210
 30
0.0
 11
47.277366
 21
190.234559
 31
0.0
  0
SPLINE
  5
1c2
100
AcDbEntity
  8
Layer_1
 62
7
100
AcDbSpline
 70
8
 71
3
 72
8
 73
4
 74
0
 40
0
 40
0
 40
0
 40
0
 40
1
 40
1
 40
1
 40
1
 10
47.277366
 20
190.234559
 30
0.0
 10
48.168567
 20
198.306744
 30
0.0
 10
59.342837
 20
198.745161
 30
0.0
 10
60.866343
 20
190.764856
 30
0.0
  0
LINE
  5
1c3
100
AcDbEntity
  8
Layer_1
 62
7
100
AcDbLine
 10
60.866343
 20
190.764856
 30
0.0
 11
60.921586
 21
190.234559
 31
0.0
  0
LINE
  5
1c4
100
AcDbEntity
  8
Layer_1
 62
7
100
AcDbLine
 10
60.921586
 20
190.234559
 30
0.0
 11
60.943618
 21
189.693210
 31
0.0
  0
LINE
  5
1c5
100
AcDbEntity
  8
Layer_1
 62
7
100
AcDbLine
 10
60.755810
 20
212.231027
 30
0.0
 11
61.120392
 21
212.197878
 31
0.0
  0
SPLINE
  5
1c6
100
AcDbEntity
  8
Layer_1
 62
7
100
AcDbSpline
 70
8
 71
3
 72
8
 73
4
 74
0
 40
0
 40
0
 40
0
 40
0
 40
1
 40
1
 40
1
 40
1
 10
61.120392
 20
212.197878
 30
0.0
 10
61.853974
 20
212.062172
 30
0.0
 10
62.414106
 20
211.473315
 30
0.0
 10
62.567668
 20
210.750596
 30
0.0
  0
LINE
  5
1c7
100
AcDbEntity
  8
Layer_1
 62
7
100
AcDbLine
 10
62.567668
 20
210.750596
 30
0.0
 11
62.600771
 21
210.397061
 31
0.0
  0
LINE
  5
1c8
100
AcDbEntity
  8
Layer_1
 62
7
100
AcDbLine
 10
60.943618
 20
204.143924
 30
0.0
 11
60.921586
 21
203.613628
 31
0.0
  0
LINE
  5
1c9
100
AcDbEntity
  8
Layer_1
 62
7
100
AcDbLine
 10
60.921586
 20
203.613628
 30
0.0
 11
60.866343
 21
203.072268
 31
0.0
  0
LINE
  5
1ca
100
AcDbEntity
  8
Layer_1
 62
7
100
AcDbLine
 10
60.866343
 20
203.072268
 30
0.0
 11
60.755867
 21
202.553023
 31
0.0
  0
SPLINE
  5
1cb
100
AcDbEntity
  8
Layer_1
 62
7
100
AcDbSpline
 70
8
 71
3
 72
8
 73
4
 74
0
 40
0
 40
0
 40
0
 40
0
 40
1
 40
1
 40
1
 40
1
 10
60.755867
 20
202.553023
 30
0.0
 10
60.090413
 20
199.688475
 30
0.0
 10
57.570744
 20
197.530627
 30
0.0
 10
54.635296
 20
197.327346
 30
0.0
  0
LINE
  5
1cc
100
AcDbEntity
  8
Layer_1
 62
7
100
AcDbLine
 10
54.635296
 20
197.327346
 30
0.0
 11
54.105000
 21
197.305277
 31
0.0
  0
LINE
  5
1cd
100
AcDbEntity
  8
Layer_1
 62
7
100
AcDbLine
 10
54.105000
 20
197.305277
 30
0.0
 11
53.563651
 21
197.327346
 31
0.0
  0
SPLINE
  5
1ce
100
AcDbEntity
  8
Layer_1
 62
7
100
AcDbSpline
 70
8
 71
3
 72
8
 73
4
 74
0
 40
0
 40
0
 40
0
 40
0
 40
1
 40
1
 40
1
 40
1
 10
53.563651
 20
197.327346
 30
0.0
 10
50.429342
 20
197.554747
 30
0.0
 10
47.819268
 20
199.967243
 30
0.0
 10
47.343654
 20
203.072268
 30
0.0
  0
LINE
  5
1cf
100
AcDbEntity
  8
Layer_1
 62
7
100
AcDbLine
 10
47.343654
 20
203.072268
 30
0.0
 11
47.277366
 21
203.613628
 31
0.0
  0
LINE
  5
1d0
100
AcDbEntity
  8
Layer_1
 62
7
100
AcDbLine
 10
47.277366
 20
203.613628
 30
0.0
 11
47.255294
 21
204.143924
 31
0.0
  0
LINE
  5
1d1
100
AcDbEntity
  8
Layer_1
 62
7
100
AcDbLine
 10
47.255294
 20
204.143924
 30
0.0
 11
47.277366
 21
204.685277
 31
0.0
  0
LINE
  5
1d2
100
AcDbEntity
  8
Layer_1
 62
7
100
AcDbLine
 10
47.277366
 20
204.685277
 30
0.0
 11
47.343654
 21
205.215574
 31
0.0
  0
SPLINE
  5
1d3
100
AcDbEntity
  8
Layer_1
 62
7
100
AcDbSpline
 70
8
 71
3
 72
8
 73
4
 74
0
 40
0
 40
0
 40
0
 40
0
 40
1
 40
1
 40
1
 40
1
 10
47.343654
 20
205.215574
 30
0.0
 10
47.769358
 20
208.113823
 30
0.0
 10
50.138772
 20
210.476979
 30
0.0
 10
53.033332
 20
210.905271
 30
0.0
  0
LINE
  5
1d4
100
AcDbEntity
  8
Layer_1
 62
7
100
AcDbLine
 10
53.033332
 20
210.905271
 30
0.0
 11
53.563636
 21
210.971559
 31
0.0
  0
LINE
  5
1d5
100
AcDbEntity
  8
Layer_1
 62
7
100
AcDbLine
 10
53.563636
 20
210.971559
 30
0.0
 11
54.104985
 21
210.993656
 31
0.0
  0
SPLINE
  5
1d6
100
AcDbEntity
  8
Layer_1
 62
7
100
AcDbSpline
 70
8
 71
3
 72
8
 73
4
 74
0
 40
0
 40
0
 40
0
 40
0
 40
1
 40
1
 40
1
 40
1
 10
54.104985
 20
210.993656
 30
0.0
 10
57.268931
 20
210.991096
 30
0.0
 10
60.021896
 20
208.823648
 30
0.0
 10
60.755849
 20
205.745874
 30
0.0
  0
LINE
  5
1d7
100
AcDbEntity
  8
Layer_1
 62
7
100
AcDbLine
 10
60.755849
 20
205.745874
 30
0.0
 11
60.866328
 21
205.215574
 31
0.0
  0
LINE
  5
1d8
100
AcDbEntity
  8
Layer_1
 62
7
100
AcDbLine
 10
60.866328
 20
205.215574
 30
0.0
 11
60.921571
 21
204.685277
 31
0.0
  0
LINE
  5
1d9
100
AcDbEntity
  8
Layer_1
 62
7
100
AcDbLine
 10
60.921571
 20
204.685277
 30
0.0
 11
60.943618
 21
204.143924
 31
0.0
  0
LINE
  5
1da
100
AcDbEntity
  8
Layer_1
 62
7
100
AcDbLine
 10
62.600818
 20
184.898395
 30
0.0
 11
62.567715
 21
184.544869
 31
0.0
  0
LINE
  5
1db
100
AcDbEntity
  8
Layer_1
 62
7
100
AcDbLine
 10
62.567715
 20
184.544869
 30
0.0
 11
62.457244
 21
184.191328
 31
0.0
  0
LINE
  5
1dc
100
AcDbEntity
  8
Layer_1
 62
7
100
AcDbLine
 10
62.457244
 20
184.191328
 30
0.0
 11
62.291518
 21
183.881989
 31
0.0
  0
LINE
  5
1dd
100
AcDbEntity
  8
Layer_1
 62
7
100
AcDbLine
 10
62.291518
 20
183.881989
 30
0.0
 11
62.059509
 21
183.594740
 31
0.0
  0
LINE
  5
1de
100
AcDbEntity
  8
Layer_1
 62
7
100
AcDbLine
 10
62.059465
 20
183.594740
 30
0.0
 11
60.612185
 21
182.147460
 31
0.0
  0
LINE
  5
1df
100
AcDbEntity
  8
Layer_1
 62
7
100
AcDbLine
 10
60.612182
 20
182.147460
 30
0.0
 11
60.335981
 21
181.915453
 31
0.0
  0
LINE
  5
1e0
100
AcDbEntity
  8
Layer_1
 62
7
100
AcDbLine
 10
60.335981
 20
181.915453
 30
0.0
 11
60.015593
 21
181.749732
 31
0.0
  0
LINE
  5
1e1
100
AcDbEntity
  8
Layer_1
 62
7
100
AcDbLine
 10
60.015593
 20
181.749732
 30
0.0
 11
59.673105
 21
181.639256
 31
0.0
  0
LINE
  5
1e2
100
AcDbEntity
  8
Layer_1
 62
7
100
AcDbLine
 10
59.673105
 20
181.639256
 30
0.0
 11
59.308519
 21
181.606154
 31
0.0
  0
LINE
  5
1e3
100
AcDbEntity
  8
Layer_1
 62
7
100
AcDbLine
 10
16.707634
 20
184.898395
 30
0.0
 11
16.707634
 21
208.938736
 31
0.0
  0
LINE
  5
1e4
100
AcDbEntity
  8
Layer_1
 62
7
100
AcDbLine
 10
32.053237
 20
189.693210
 30
0.0
 11
32.031139
 21
189.162906
 31
0.0
  0
LINE
  5
1e5
100
AcDbEntity
  8
Layer_1
 62
7
100
AcDbLine
 10
32.031139
 20
189.162906
 30
0.0
 11
31.964852
 21
188.621550
 31
0.0
  0
SPLINE
  5
1e6
100
AcDbEntity
  8
Layer_1
 62
7
100
AcDbSpline
 70
8
 71
3
 72
8
 73
4
 74
0
 40
0
 40
0
 40
0
 40
0
 40
1
 40
1
 40
1
 40
1
 10
31.964852
 20
188.621550
 30
0.0
 10
30.395489
 20
180.642539
 30
0.0
 10
19.310346
 20
181.085204
 30
0.0
 10
18.375873
 20
189.162906
 30
0.0
  0
LINE
  5
1e7
100
AcDbEntity
  8
Layer_1
 62
7
100
AcDbLine
 10
18.375873
 20
189.162906
 30
0.0
 11
18.353776
 21
189.693210
 31
0.0
  0
LINE
  5
1e8
100
AcDbEntity
  8
Layer_1
 62
7
100
AcDbLine
 10
18.353776
 20
189.693210
 30
0.0
 11
18.375873
 21
190.234559
 31
0.0
  0
SPLINE
  5
1e9
100
AcDbEntity
  8
Layer_1
 62
7
100
AcDbSpline
 70
8
 71
3
 72
8
 73
4
 74
0
 40
0
 40
0
 40
0
 40
0
 40
1
 40
1
 40
1
 40
1
 10
18.375873
 20
190.234559
 30
0.0
 10
19.300586
 20
198.313011
 30
0.0
 10
30.421635
 20
198.747000
 30
0.0
 10
31.964851
 20
190.764856
 30
0.0
  0
LINE
  5
1ea
100
AcDbEntity
  8
Layer_1
 62
7
100
AcDbLine
 10
31.964851
 20
190.764856
 30
0.0
 11
32.031139
 21
190.234559
 31
0.0
  0
LINE
  5
1eb
100
AcDbEntity
  8
Layer_1
 62
7
100
AcDbLine
 10
32.031139
 20
190.234559
 30
0.0
 11
32.053237
 21
189.693210
 31
0.0
  0
LINE
  5
1ec
100
AcDbEntity
  8
Layer_1
 62
7
100
AcDbLine
 10
17.237935
 20
210.242396
 30
0.0
 11
18.696264
 21
211.700725
 31
0.0
  0
LINE
  5
1ed
100
AcDbEntity
  8
Layer_1
 62
7
100
AcDbLine
 10
32.053237
 20
204.143924
 30
0.0
 11
32.031139
 21
203.613628
 31
0.0
  0
LINE
  5
1ee
100
AcDbEntity
  8
Layer_1
 62
7
100
AcDbLine
 10
32.031139
 20
203.613628
 30
0.0
 11
31.964852
 21
203.072268
 31
0.0
  0
SPLINE
  5
1ef
100
AcDbEntity
  8
Layer_1
 62
7
100
AcDbSpline
 70
8
 71
3
 72
8
 73
4
 74
0
 40
0
 40
0
 40
0
 40
0
 40
1
 40
1
 40
1
 40
1
 10
31.964852
 20
203.072268
 30
0.0
 10
30.395490
 20
195.093260
 30
0.0
 10
19.310347
 20
195.535918
 30
0.0
 10
18.375873
 20
203.613628
 30
0.0
  0
LINE
  5
1f0
100
AcDbEntity
  8
Layer_1
 62
7
100
AcDbLine
 10
18.375873
 20
203.613628
 30
0.0
 11
18.353776
 21
204.143924
 31
0.0
  0
LINE
  5
1f1
100
AcDbEntity
  8
Layer_1
 62
7
100
AcDbLine
 10
18.353776
 20
204.143924
 30
0.0
 11
18.375873
 21
204.685277
 31
0.0
  0
SPLINE
  5
1f2
100
AcDbEntity
  8
Layer_1
 62
7
100
AcDbSpline
 70
8
 71
3
 72
8
 73
4
 74
0
 40
0
 40
0
 40
0
 40
0
 40
1
 40
1
 40
1
 40
1
 10
18.375873
 20
204.685277
 30
0.0
 10
19.316423
 20
212.765194
 30
0.0
 10
30.405065
 20
213.199378
 30
0.0
 10
31.964852
 20
205.215574
 30
0.0
  0
LINE
  5
1f3
100
AcDbEntity
  8
Layer_1
 62
7
100
AcDbLine
 10
31.964852
 20
205.215574
 30
0.0
 11
32.031140
 21
204.685277
 31
0.0
  0
LINE
  5
1f4
100
AcDbEntity
  8
Layer_1
 62
7
100
AcDbLine
 10
32.031140
 20
204.685277
 30
0.0
 11
32.053237
 21
204.143924
 31
0.0
  0
LINE
  5
1f5
100
AcDbEntity
  8
Layer_1
 62
7
100
AcDbLine
 10
18.696264
 20
211.700725
 30
0.0
 11
18.972464
 21
211.921683
 31
0.0
  0
LINE
  5
1f6
100
AcDbEntity
  8
Layer_1
 62
7
100
AcDbLine
 10
18.972464
 20
211.921683
 30
0.0
 11
19.292854
 21
212.098451
 31
0.0
  0
LINE
  5
1f7
100
AcDbEntity
  8
Layer_1
 62
7
100
AcDbLine
 10
19.292854
 20
212.098451
 30
0.0
 11
19.635340
 21
212.197883
 31
0.0
  0
LINE
  5
1f8
100
AcDbEntity
  8
Layer_1
 62
7
100
AcDbLine
 10
19.635340
 20
212.197883
 30
0.0
 11
19.999924
 21
212.231032
 31
0.0
  0
LINE
  5
1f9
100
AcDbEntity
  8
Layer_1
 62
7
100
AcDbLine
 10
16.707634
 20
208.938736
 30
0.0
 11
16.740776
 21
209.303321
 31
0.0
  0
LINE
  5
1fa
100
AcDbEntity
  8
Layer_1
 62
7
100
AcDbLine
 10
16.740776
 20
209.303321
 30
0.0
 11
16.840207
 21
209.645807
 31
0.0
  0
LINE
  5
1fb
100
AcDbEntity
  8
Layer_1
 62
7
100
AcDbLine
 10
16.840207
 20
209.645807
 30
0.0
 11
17.016975
 21
209.966197
 31
0.0
  0
LINE
  5
1fc
100
AcDbEntity
  8
Layer_1
 62
7
100
AcDbLine
 10
17.016975
 20
209.966197
 30
0.0
 11
17.237934
 21
210.242396
 31
0.0
  0
LINE
  5
1fd
100
AcDbEntity
  8
Layer_1
 62
7
100
AcDbLine
 10
17.237935
 20
183.594740
 30
0.0
 11
17.016977
 21
183.881985
 31
0.0
  0
LINE
  5
1fe
100
AcDbEntity
  8
Layer_1
 62
7
100
AcDbLine
 10
17.016977
 20
183.881985
 30
0.0
 11
16.840209
 21
184.191328
 31
0.0
  0
LINE
  5
1ff
100
AcDbEntity
  8
Layer_1
 62
7
100
AcDbLine
 10
16.840209
 20
184.191328
 30
0.0
 11
16.740778
 21
184.544862
 31
0.0
  0
LINE
  5
200
100
AcDbEntity
  8
Layer_1
 62
7
100
AcDbLine
 10
16.740778
 20
184.544862
 30
0.0
 11
16.707635
 21
184.898395
 31
0.0
  0
LINE
  5
201
100
AcDbEntity
  8
Layer_1
 62
7
100
AcDbLine
 10
19.999924
 20
181.606107
 30
0.0
 11
19.635340
 21
181.639210
 31
0.0
  0
LINE
  5
202
100
AcDbEntity
  8
Layer_1
 62
7
100
AcDbLine
 10
19.635340
 20
181.639210
 30
0.0
 11
19.292854
 21
181.749692
 31
0.0
  0
LINE
  5
203
100
AcDbEntity
  8
Layer_1
 62
7
100
AcDbLine
 10
19.292854
 20
181.749692
 30
0.0
 11
18.972464
 21
181.915414
 31
0.0
  0
LINE
  5
204
100
AcDbEntity
  8
Layer_1
 62
7
100
AcDbLine
 10
18.972464
 20
181.915414
 30
0.0
 11
18.696264
 21
182.147416
 31
0.0
  0
LINE
  5
205
100
AcDbEntity
  8
Layer_1
 62
7
100
AcDbLine
 10
18.696264
 20
182.147460
 30
0.0
 11
17.237935
 21
183.594740
 31
0.0
  0
ENDSEC
  0
SECTION
  2
OBJECTS
  0
DICTIONARY
  5
C
330
0
100
AcDbDictionary
  3
ACAD_GROUP
350
D
  3
ACAD_MLINESTYLE
350
17
  0
DICTIONARY
  5
D
330
C
100
AcDbDictionary
  0
DICTIONARY
  5
1A
330
C
100
AcDbDictionary
  0
DICTIONARY
  5
17
330
C
100
AcDbDictionary
  3
STANDARD
350
18
  0
DICTIONARY
  5
19
330
C
100
AcDbDictionary
  0
ENDSEC
  0
EOF
