<?xml version="1.0" encoding="UTF-8" standalone="no"?>
<svg
   xmlns:dc="http://purl.org/dc/elements/1.1/"
   xmlns:cc="http://creativecommons.org/ns#"
   xmlns:rdf="http://www.w3.org/1999/02/22-rdf-syntax-ns#"
   xmlns:svg="http://www.w3.org/2000/svg"
   xmlns="http://www.w3.org/2000/svg"
   xmlns:sodipodi="http://sodipodi.sourceforge.net/DTD/sodipodi-0.dtd"
   xmlns:inkscape="http://www.inkscape.org/namespaces/inkscape"
   width="210mm"
   height="297mm"
   viewBox="0 0 210 297"
   version="1.1"
   id="svg16926"
   inkscape:version="1.0.2 (1.0.2+r75+1)"
   sodipodi:docname="drawing (copy).svg">
  <defs
     id="defs16920" />
  <sodipodi:namedview
     id="base"
     pagecolor="#ffffff"
     bordercolor="#666666"
     borderopacity="1.0"
     inkscape:pageopacity="0.0"
     inkscape:pageshadow="2"
     inkscape:zoom="0.89795444"
     inkscape:cx="353.15645"
     inkscape:cy="441.5941"
     inkscape:document-units="mm"
     inkscape:current-layer="g33728"
     inkscape:document-rotation="0"
     showgrid="false"
     showguides="true"
     inkscape:guide-bbox="true"
     inkscape:window-width="1440"
     inkscape:window-height="875"
     inkscape:window-x="480"
     inkscape:window-y="0"
     inkscape:window-maximized="1">
    <sodipodi:guide
       position="191.88574,168.04575"
       orientation="0,-1"
       id="guide17688" />
  </sodipodi:namedview>
  <metadata
     id="metadata16923">
    <rdf:RDF>
      <cc:Work
         rdf:about="">
        <dc:format>image/svg+xml</dc:format>
        <dc:type
           rdf:resource="http://purl.org/dc/dcmitype/StillImage" />
        <dc:title></dc:title>
      </cc:Work>
    </rdf:RDF>
  </metadata>
  <g
     inkscape:label="Layer 1"
     inkscape:groupmode="layer"
     id="layer1">
    <g
       id="g33468"
       transform="matrix(0,1,1,0,60.245401,-60.293398)">
      <g
         id="g33728">
        <path
           d="m 114.29773,92.565612 1.47062,-0.03068 1.5013,-0.183831 1.43997,-0.306364 c 7.93326,-1.843402 13.91333,-8.81513 14.49186,-16.94293 l 0.0612,-1.501271 -0.0612,-1.501269 C 132.55556,63.371976 125.89377,56.22 117.26965,54.849961 l -1.5013,-0.183829 -1.47062,-0.06128 -1.50128,0.06128 -1.47062,0.183829 c -8.05377,1.234765 -14.569494,7.712189 -15.778681,15.778715 l -0.183829,1.470632 -0.06128,1.501273 c -0.002,8.766097 6.02604,16.414421 14.55316,18.444195 l 1.47063,0.306377 1.47062,0.18383 z"
           style="fill:none;stroke:#000000;stroke-width:0.428935;stroke-linecap:round;stroke-linejoin:round;stroke-miterlimit:10;stroke-dasharray:none;stroke-opacity:1"
           id="path1498" />
        <path
           d="m 154.37248,92.565612 1.47064,-0.03068 1.50129,-0.183831 1.43997,-0.306364 c 7.93327,-1.843402 13.91334,-8.81513 14.49187,-16.94293 l 0.0612,-1.501271 -0.0612,-1.501269 C 172.6303,63.371981 165.96853,56.220005 157.34441,54.849966 l -1.50129,-0.183829 -1.47064,-0.06128 -1.50127,0.06128 -1.47062,0.183829 c -8.08645,1.251058 -14.54956,7.67589 -15.77869,15.778671 l -0.18382,1.470635 -0.0612,1.50127 c -0.0215,8.732403 6.04083,16.453728 14.55313,18.4442 l 1.47065,0.306364 1.47061,0.183831 z"
           style="fill:none;stroke:#000000;stroke-width:0.428935;stroke-linecap:round;stroke-linejoin:round;stroke-miterlimit:10;stroke-dasharray:none;stroke-opacity:1"
           id="path1514" />
        <path
           d="m 154.37248,132.64036 1.47064,-0.0611 1.50129,-0.1532 1.43997,-0.30637 c 7.94398,-1.84544 13.92814,-8.83299 14.49187,-16.97358 l 0.0612,-1.47062 -0.0612,-1.50127 c -0.63062,-8.69207 -7.321,-15.930334 -15.93184,-17.249307 l -1.50129,-0.18383 -1.47064,-0.06121 -1.50127,0.06121 c -22.3858,2.471481 -23.60162,33.459987 -1.47062,37.684977 l 1.47062,0.1532 z"
           style="fill:none;stroke:#000000;stroke-width:0.428935;stroke-linecap:round;stroke-linejoin:round;stroke-miterlimit:10;stroke-dasharray:none;stroke-opacity:1"
           id="path1546" />
        <path
           d="m 114.29773,132.64036 1.47062,-0.0611 1.5013,-0.1532 1.43997,-0.30637 c 7.94397,-1.84544 13.92812,-8.83299 14.49186,-16.97358 l 0.0612,-1.47062 -0.0612,-1.50127 c -0.63063,-8.69207 -7.32097,-15.930334 -15.93183,-17.249307 l -1.5013,-0.18383 -1.47062,-0.06121 -1.50128,0.06121 -1.47062,0.18383 c -8.03743,1.180564 -14.590941,7.751427 -15.778681,15.778627 l -0.183829,1.47064 -0.06128,1.50127 c 0.0071,8.77426 6.01787,16.40879 14.55316,18.44419 l 1.47063,0.30638 1.47062,0.1532 z"
           style="fill:none;stroke:#000000;stroke-width:0.428935;stroke-linecap:round;stroke-linejoin:round;stroke-miterlimit:10;stroke-dasharray:none;stroke-opacity:1"
           id="path1578" />
        <path
           d="m 154.37248,52.521497 1.47064,-0.06128 1.50129,-0.183828 c 22.12741,-4.35216 20.89981,-35.093502 -1.50129,-37.684985 l -1.47064,-0.06128 -1.50127,0.06128 c -22.40318,2.564417 -23.60672,33.405333 -1.47062,37.684982 l 1.47062,0.18383 z"
           style="fill:none;stroke:#000000;stroke-width:0.428935;stroke-linecap:round;stroke-linejoin:round;stroke-miterlimit:10;stroke-dasharray:none;stroke-opacity:1"
           id="path1826" />
        <path
           d="m 114.29773,52.521497 1.47062,-0.06128 1.5013,-0.183828 c 22.1274,-4.352158 20.89982,-35.0935 -1.5013,-37.684983 l -1.47062,-0.06128 -1.50128,0.06128 c -22.407242,2.608333 -23.611322,33.359378 -1.47062,37.684982 l 1.47062,0.18383 z"
           style="fill:none;stroke:#000000;stroke-width:0.428935;stroke-linecap:round;stroke-linejoin:round;stroke-miterlimit:10;stroke-dasharray:none;stroke-opacity:1"
           id="path1862" />
      </g>
    </g>
  </g>
</svg>
