  0
SECTION
  2
HEADER
  9
$ACADVER
  1
AC1014
  9
$HANDSEED
  5
FFFF
  9
$MEASUREMENT
 70
     1
  0
ENDSEC
  0
SECTION
  2
TABLES
  0
TABLE
  2
VPORT
  5
8
330
0
100
AcDbSymbolTable
 70
     4
  0
VPORT
  5
2E
330
8
100
AcDbSymbolTableRecord
100
AcDbViewportTableRecord
  2
*ACTIVE
 70
     0
 10
0.0
 20
0.0
 11
1.0
 21
1.0
 12
210.0
 22
148.5
 13
0.0
 23
0.0
 14
10.0
 24
10.0
 15
10.0
 25
10.0
 16
0.0
 26
0.0
 36
1.0
 17
0.0
 27
0.0
 37
0.0
 40
341.0
 41
1.24
 42
50.0
 43
0.0
 44
0.0
 50
0.0
 51
0.0
 71
     0
 72
   100
 73
     1
 74
     3
 75
     0
 76
     0
 77
     0
 78
     0
  0
ENDTAB
  0
TABLE
  2
LTYPE
  5
5
330
0
100
AcDbSymbolTable
 70
     1
  0
LTYPE
  5
14
330
5
100
AcDbSymbolTableRecord
100
AcDbLinetypeTableRecord
  2
BYBLOCK
 70
     0
  3

 72
    65
 73
     0
 40
0.0
  0
LTYPE
  5
15
330
5
100
AcDbSymbolTableRecord
100
AcDbLinetypeTableRecord
  2
BYLAYER
 70
     0
  3

 72
    65
 73
     0
 40
0.0
  0
LTYPE
  5
16
330
5
100
AcDbSymbolTableRecord
100
AcDbLinetypeTableRecord
  2
CONTINUOUS
 70
     0
  3
Solid line
 72
    65
 73
     0
 40
0.0
  0
ENDTAB
  0
TABLE
  2
LAYER
  5
2
100
AcDbSymbolTable
 70
2
  0
LAYER
  5
50
100
AcDbSymbolTableRecord
100
AcDbLayerTableRecord
  2
0
 70
0
  6
CONTINUOUS
  0
LAYER
  5
51
100
AcDbSymbolTableRecord
100
AcDbLayerTableRecord
  2
Layer_1
 70
0
  6
CONTINUOUS
  0
ENDTAB
  0
TABLE
  2
STYLE
  5
3
330
0
100
AcDbSymbolTable
 70
     1
  0
STYLE
  5
11
330
3
100
AcDbSymbolTableRecord
100
AcDbTextStyleTableRecord
  2
STANDARD
 70
     0
 40
0.0
 41
1.0
 50
0.0
 71
     0
 42
2.5
  3
txt
  4

  0
ENDTAB
  0
TABLE
  2
VIEW
  5
6
330
0
100
AcDbSymbolTable
 70
     0
  0
ENDTAB
  0
TABLE
  2
UCS
  5
7
330
0
100
AcDbSymbolTable
 70
     0
  0
ENDTAB
  0
TABLE
  2
APPID
  5
9
330
0
100
AcDbSymbolTable
 70
     2
  0
APPID
  5
12
330
9
100
AcDbSymbolTableRecord
100
AcDbRegAppTableRecord
  2
ACAD
 70
     0
  0
ENDTAB
  0
TABLE
  2
DIMSTYLE
  5
A
330
0
100
AcDbSymbolTable
 70
     1
  0
DIMSTYLE
105
27
330
A
100
AcDbSymbolTableRecord
100
AcDbDimStyleTableRecord
  2
ISO-25
 70
     0
  3

  4

  5

  6

  7

 40
1.0
 41
2.5
 42
0.625
 43
3.75
 44
1.25
 45
0.0
 46
0.0
 47
0.0
 48
0.0
140
2.5
141
2.5
142
0.0
143
0.03937007874016
144
1.0
145
0.0
146
1.0
147
0.625
 71
     0
 72
     0
 73
     0
 74
     0
 75
     0
 76
     0
 77
     1
 78
     8
170
     0
171
     3
172
     1
173
     0
174
     0
175
     0
176
     0
177
     0
178
     0
270
     2
271
     2
272
     2
273
     2
274
     3
340
11
275
     0
280
     0
281
     0
282
     0
283
     0
284
     8
285
     0
286
     0
287
     3
288
     0
  0
ENDTAB
  0
TABLE
  2
BLOCK_RECORD
  5
1
330
0
100
AcDbSymbolTable
 70
     1
  0
BLOCK_RECORD
  5
1F
330
1
100
AcDbSymbolTableRecord
100
AcDbBlockTableRecord
  2
*MODEL_SPACE
  0
BLOCK_RECORD
  5
1B
330
1
100
AcDbSymbolTableRecord
100
AcDbBlockTableRecord
  2
*PAPER_SPACE
  0
ENDTAB
  0
ENDSEC
  0
SECTION
  2
BLOCKS
  0
BLOCK
  5
20
330
1F
100
AcDbEntity
  8
0
100
AcDbBlockBegin
  2
*MODEL_SPACE
 70
     0
 10
0.0
 20
0.0
 30
0.0
  3
*MODEL_SPACE
  1

  0
ENDBLK
  5
21
330
1F
100
AcDbEntity
  8
0
100
AcDbBlockEnd
  0
BLOCK
  5
1C
330
1B
100
AcDbEntity
 67
     1
  8
0
100
AcDbBlockBegin
  2
*PAPER_SPACE
  1

  0
ENDBLK
  5
1D
330
1B
100
AcDbEntity
 67
     1
  8
0
100
AcDbBlockEnd
  0
ENDSEC
  0
SECTION
  2
ENTITIES
  0
LINE
  5
100
100
AcDbEntity
  8
Layer_1
 62
7
100
AcDbLine
 10
152.811012
 20
242.995670
 30
0.0
 11
152.780332
 21
241.525050
 31
0.0
  0
LINE
  5
101
100
AcDbEntity
  8
Layer_1
 62
7
100
AcDbLine
 10
152.780332
 20
241.525050
 30
0.0
 11
152.596501
 21
240.023750
 31
0.0
  0
LINE
  5
102
100
AcDbEntity
  8
Layer_1
 62
7
100
AcDbLine
 10
152.596501
 20
240.023750
 30
0.0
 11
152.290137
 21
238.583780
 31
0.0
  0
SPLINE
  5
103
100
AcDbEntity
  8
Layer_1
 62
7
100
AcDbSpline
 70
8
 71
3
 72
8
 73
4
 74
0
 40
0
 40
0
 40
0
 40
0
 40
1
 40
1
 40
1
 40
1
 10
152.290137
 20
238.583780
 30
0.0
 10
150.446735
 20
230.650520
 30
0.0
 10
143.475007
 20
224.670450
 30
0.0
 10
135.347207
 20
224.091920
 30
0.0
  0
LINE
  5
104
100
AcDbEntity
  8
Layer_1
 62
7
100
AcDbLine
 10
135.347207
 20
224.091920
 30
0.0
 11
133.845936
 21
224.030720
 31
0.0
  0
LINE
  5
105
100
AcDbEntity
  8
Layer_1
 62
7
100
AcDbLine
 10
133.845936
 20
224.030720
 30
0.0
 11
132.344667
 21
224.091920
 31
0.0
  0
SPLINE
  5
106
100
AcDbEntity
  8
Layer_1
 62
7
100
AcDbSpline
 70
8
 71
3
 72
8
 73
4
 74
0
 40
0
 40
0
 40
0
 40
0
 40
1
 40
1
 40
1
 40
1
 10
132.344667
 20
224.091920
 30
0.0
 10
123.617376
 20
224.737840
 30
0.0
 10
116.465400
 20
231.399630
 30
0.0
 10
115.095361
 20
240.023750
 30
0.0
  0
LINE
  5
107
100
AcDbEntity
  8
Layer_1
 62
7
100
AcDbLine
 10
115.095361
 20
240.023750
 30
0.0
 11
114.911532
 21
241.525050
 31
0.0
  0
LINE
  5
108
100
AcDbEntity
  8
Layer_1
 62
7
100
AcDbLine
 10
114.911532
 20
241.525050
 30
0.0
 11
114.850252
 21
242.995670
 31
0.0
  0
LINE
  5
109
100
AcDbEntity
  8
Layer_1
 62
7
100
AcDbLine
 10
114.850252
 20
242.995670
 30
0.0
 11
114.911532
 21
244.496950
 31
0.0
  0
LINE
  5
10a
100
AcDbEntity
  8
Layer_1
 62
7
100
AcDbLine
 10
114.911532
 20
244.496950
 30
0.0
 11
115.095361
 21
245.967570
 31
0.0
  0
SPLINE
  5
10b
100
AcDbEntity
  8
Layer_1
 62
7
100
AcDbSpline
 70
8
 71
3
 72
8
 73
4
 74
0
 40
0
 40
0
 40
0
 40
0
 40
1
 40
1
 40
1
 40
1
 10
115.095361
 20
245.967570
 30
0.0
 10
116.330126
 20
254.021340
 30
0.0
 10
122.807550
 20
260.537064
 30
0.0
 10
130.874076
 20
261.746251
 30
0.0
  0
LINE
  5
10c
100
AcDbEntity
  8
Layer_1
 62
7
100
AcDbLine
 10
130.874076
 20
261.746251
 30
0.0
 11
132.344708
 21
261.930080
 31
0.0
  0
LINE
  5
10d
100
AcDbEntity
  8
Layer_1
 62
7
100
AcDbLine
 10
132.344708
 20
261.930080
 30
0.0
 11
133.845981
 21
261.991360
 31
0.0
  0
SPLINE
  5
10e
100
AcDbEntity
  8
Layer_1
 62
7
100
AcDbSpline
 70
8
 71
3
 72
8
 73
4
 74
0
 40
0
 40
0
 40
0
 40
0
 40
1
 40
1
 40
1
 40
1
 10
133.845981
 20
261.991360
 30
0.0
 10
142.612078
 20
261.993360
 30
0.0
 10
150.260402
 20
255.965320
 30
0.0
 10
152.290176
 20
247.438200
 30
0.0
  0
LINE
  5
10f
100
AcDbEntity
  8
Layer_1
 62
7
100
AcDbLine
 10
152.290176
 20
247.438200
 30
0.0
 11
152.596553
 21
245.967570
 31
0.0
  0
LINE
  5
110
100
AcDbEntity
  8
Layer_1
 62
7
100
AcDbLine
 10
152.596553
 20
245.967570
 30
0.0
 11
152.780383
 21
244.496950
 31
0.0
  0
LINE
  5
111
100
AcDbEntity
  8
Layer_1
 62
7
100
AcDbLine
 10
152.780383
 20
244.496950
 30
0.0
 11
152.811012
 21
242.995670
 31
0.0
  0
LINE
  5
112
100
AcDbEntity
  8
Layer_1
 62
7
100
AcDbLine
 10
152.811012
 20
202.920920
 30
0.0
 11
152.780332
 21
201.450280
 31
0.0
  0
LINE
  5
113
100
AcDbEntity
  8
Layer_1
 62
7
100
AcDbLine
 10
152.780332
 20
201.450280
 30
0.0
 11
152.596501
 21
199.948990
 31
0.0
  0
LINE
  5
114
100
AcDbEntity
  8
Layer_1
 62
7
100
AcDbLine
 10
152.596501
 20
199.948990
 30
0.0
 11
152.290137
 21
198.509020
 31
0.0
  0
SPLINE
  5
115
100
AcDbEntity
  8
Layer_1
 62
7
100
AcDbSpline
 70
8
 71
3
 72
8
 73
4
 74
0
 40
0
 40
0
 40
0
 40
0
 40
1
 40
1
 40
1
 40
1
 10
152.290137
 20
198.509020
 30
0.0
 10
150.446735
 20
190.575750
 30
0.0
 10
143.475007
 20
184.595680
 30
0.0
 10
135.347207
 20
184.017150
 30
0.0
  0
LINE
  5
116
100
AcDbEntity
  8
Layer_1
 62
7
100
AcDbLine
 10
135.347207
 20
184.017150
 30
0.0
 11
133.845936
 21
183.955950
 31
0.0
  0
LINE
  5
117
100
AcDbEntity
  8
Layer_1
 62
7
100
AcDbLine
 10
133.845936
 20
183.955950
 30
0.0
 11
132.344667
 21
184.017150
 31
0.0
  0
SPLINE
  5
118
100
AcDbEntity
  8
Layer_1
 62
7
100
AcDbSpline
 70
8
 71
3
 72
8
 73
4
 74
0
 40
0
 40
0
 40
0
 40
0
 40
1
 40
1
 40
1
 40
1
 10
132.344667
 20
184.017150
 30
0.0
 10
123.617381
 20
184.663100
 30
0.0
 10
116.465405
 20
191.324870
 30
0.0
 10
115.095366
 20
199.948990
 30
0.0
  0
LINE
  5
119
100
AcDbEntity
  8
Layer_1
 62
7
100
AcDbLine
 10
115.095366
 20
199.948990
 30
0.0
 11
114.911537
 21
201.450280
 31
0.0
  0
LINE
  5
11a
100
AcDbEntity
  8
Layer_1
 62
7
100
AcDbLine
 10
114.911537
 20
201.450280
 30
0.0
 11
114.850257
 21
202.920920
 31
0.0
  0
LINE
  5
11b
100
AcDbEntity
  8
Layer_1
 62
7
100
AcDbLine
 10
114.850257
 20
202.920920
 30
0.0
 11
114.911537
 21
204.422190
 31
0.0
  0
LINE
  5
11c
100
AcDbEntity
  8
Layer_1
 62
7
100
AcDbLine
 10
114.911537
 20
204.422190
 30
0.0
 11
115.095366
 21
205.892810
 31
0.0
  0
SPLINE
  5
11d
100
AcDbEntity
  8
Layer_1
 62
7
100
AcDbSpline
 70
8
 71
3
 72
8
 73
4
 74
0
 40
0
 40
0
 40
0
 40
0
 40
1
 40
1
 40
1
 40
1
 10
115.095366
 20
205.892810
 30
0.0
 10
116.346424
 20
213.979260
 30
0.0
 10
122.771256
 20
220.442370
 30
0.0
 10
130.874037
 20
221.671500
 30
0.0
  0
LINE
  5
11e
100
AcDbEntity
  8
Layer_1
 62
7
100
AcDbLine
 10
130.874037
 20
221.671500
 30
0.0
 11
132.344672
 21
221.855320
 31
0.0
  0
LINE
  5
11f
100
AcDbEntity
  8
Layer_1
 62
7
100
AcDbLine
 10
132.344672
 20
221.855320
 30
0.0
 11
133.845942
 21
221.916520
 31
0.0
  0
SPLINE
  5
120
100
AcDbEntity
  8
Layer_1
 62
7
100
AcDbSpline
 70
8
 71
3
 72
8
 73
4
 74
0
 40
0
 40
0
 40
0
 40
0
 40
1
 40
1
 40
1
 40
1
 10
133.845942
 20
221.916520
 30
0.0
 10
142.578345
 20
221.938020
 30
0.0
 10
150.299670
 20
215.875690
 30
0.0
 10
152.290142
 20
207.363390
 30
0.0
  0
LINE
  5
121
100
AcDbEntity
  8
Layer_1
 62
7
100
AcDbLine
 10
152.290142
 20
207.363390
 30
0.0
 11
152.596506
 21
205.892740
 31
0.0
  0
LINE
  5
122
100
AcDbEntity
  8
Layer_1
 62
7
100
AcDbLine
 10
152.596506
 20
205.892740
 30
0.0
 11
152.780337
 21
204.422130
 31
0.0
  0
LINE
  5
123
100
AcDbEntity
  8
Layer_1
 62
7
100
AcDbLine
 10
152.780337
 20
204.422130
 30
0.0
 11
152.811012
 21
202.920920
 31
0.0
  0
LINE
  5
124
100
AcDbEntity
  8
Layer_1
 62
7
100
AcDbLine
 10
192.885760
 20
202.920920
 30
0.0
 11
192.824660
 21
201.450280
 31
0.0
  0
LINE
  5
125
100
AcDbEntity
  8
Layer_1
 62
7
100
AcDbLine
 10
192.824660
 20
201.450280
 30
0.0
 11
192.671460
 21
199.948990
 31
0.0
  0
LINE
  5
126
100
AcDbEntity
  8
Layer_1
 62
7
100
AcDbLine
 10
192.671460
 20
199.948990
 30
0.0
 11
192.365090
 21
198.509020
 31
0.0
  0
SPLINE
  5
127
100
AcDbEntity
  8
Layer_1
 62
7
100
AcDbSpline
 70
8
 71
3
 72
8
 73
4
 74
0
 40
0
 40
0
 40
0
 40
0
 40
1
 40
1
 40
1
 40
1
 10
192.365090
 20
198.509020
 30
0.0
 10
190.519650
 20
190.565040
 30
0.0
 10
183.532100
 20
184.580880
 30
0.0
 10
175.391510
 20
184.017150
 30
0.0
  0
LINE
  5
128
100
AcDbEntity
  8
Layer_1
 62
7
100
AcDbLine
 10
175.391510
 20
184.017150
 30
0.0
 11
173.920890
 21
183.955950
 31
0.0
  0
LINE
  5
129
100
AcDbEntity
  8
Layer_1
 62
7
100
AcDbLine
 10
173.920890
 20
183.955950
 30
0.0
 11
172.419620
 21
184.017150
 31
0.0
  0
SPLINE
  5
12a
100
AcDbEntity
  8
Layer_1
 62
7
100
AcDbSpline
 70
8
 71
3
 72
8
 73
4
 74
0
 40
0
 40
0
 40
0
 40
0
 40
1
 40
1
 40
1
 40
1
 10
172.419620
 20
184.017150
 30
0.0
 10
163.727550
 20
184.647770
 30
0.0
 10
156.489286
 20
191.338150
 30
0.0
 10
155.170313
 20
199.948990
 30
0.0
  0
LINE
  5
12b
100
AcDbEntity
  8
Layer_1
 62
7
100
AcDbLine
 10
155.170313
 20
199.948990
 30
0.0
 11
154.986483
 21
201.450280
 31
0.0
  0
LINE
  5
12c
100
AcDbEntity
  8
Layer_1
 62
7
100
AcDbLine
 10
154.986483
 20
201.450280
 30
0.0
 11
154.925273
 21
202.920920
 31
0.0
  0
LINE
  5
12d
100
AcDbEntity
  8
Layer_1
 62
7
100
AcDbLine
 10
154.925273
 20
202.920920
 30
0.0
 11
154.986483
 21
204.422190
 31
0.0
  0
SPLINE
  5
12e
100
AcDbEntity
  8
Layer_1
 62
7
100
AcDbSpline
 70
8
 71
3
 72
8
 73
4
 74
0
 40
0
 40
0
 40
0
 40
0
 40
1
 40
1
 40
1
 40
1
 10
154.986483
 20
204.422190
 30
0.0
 10
157.457964
 20
226.807990
 30
0.0
 10
188.446470
 20
228.023810
 30
0.0
 10
192.671460
 20
205.892810
 30
0.0
  0
LINE
  5
12f
100
AcDbEntity
  8
Layer_1
 62
7
100
AcDbLine
 10
192.671460
 20
205.892810
 30
0.0
 11
192.824660
 21
204.422190
 31
0.0
  0
LINE
  5
130
100
AcDbEntity
  8
Layer_1
 62
7
100
AcDbLine
 10
192.824660
 20
204.422190
 30
0.0
 11
192.885760
 21
202.920920
 31
0.0
  0
LINE
  5
131
100
AcDbEntity
  8
Layer_1
 62
7
100
AcDbLine
 10
192.885760
 20
242.995670
 30
0.0
 11
192.824660
 21
241.525050
 31
0.0
  0
LINE
  5
132
100
AcDbEntity
  8
Layer_1
 62
7
100
AcDbLine
 10
192.824660
 20
241.525050
 30
0.0
 11
192.671460
 21
240.023750
 31
0.0
  0
LINE
  5
133
100
AcDbEntity
  8
Layer_1
 62
7
100
AcDbLine
 10
192.671460
 20
240.023750
 30
0.0
 11
192.365090
 21
238.583780
 31
0.0
  0
SPLINE
  5
134
100
AcDbEntity
  8
Layer_1
 62
7
100
AcDbSpline
 70
8
 71
3
 72
8
 73
4
 74
0
 40
0
 40
0
 40
0
 40
0
 40
1
 40
1
 40
1
 40
1
 10
192.365090
 20
238.583780
 30
0.0
 10
190.519650
 20
230.639810
 30
0.0
 10
183.532100
 20
224.655660
 30
0.0
 10
175.391510
 20
224.091920
 30
0.0
  0
LINE
  5
135
100
AcDbEntity
  8
Layer_1
 62
7
100
AcDbLine
 10
175.391510
 20
224.091920
 30
0.0
 11
173.920890
 21
224.030720
 31
0.0
  0
LINE
  5
136
100
AcDbEntity
  8
Layer_1
 62
7
100
AcDbLine
 10
173.920890
 20
224.030720
 30
0.0
 11
172.419620
 21
224.091920
 31
0.0
  0
SPLINE
  5
137
100
AcDbEntity
  8
Layer_1
 62
7
100
AcDbSpline
 70
8
 71
3
 72
8
 73
4
 74
0
 40
0
 40
0
 40
0
 40
0
 40
1
 40
1
 40
1
 40
1
 10
172.419620
 20
224.091920
 30
0.0
 10
163.727550
 20
224.722550
 30
0.0
 10
156.489286
 20
231.412890
 30
0.0
 10
155.170313
 20
240.023750
 30
0.0
  0
LINE
  5
138
100
AcDbEntity
  8
Layer_1
 62
7
100
AcDbLine
 10
155.170313
 20
240.023750
 30
0.0
 11
154.986483
 21
241.525050
 31
0.0
  0
LINE
  5
139
100
AcDbEntity
  8
Layer_1
 62
7
100
AcDbLine
 10
154.986483
 20
241.525050
 30
0.0
 11
154.925273
 21
242.995670
 31
0.0
  0
LINE
  5
13a
100
AcDbEntity
  8
Layer_1
 62
7
100
AcDbLine
 10
154.925273
 20
242.995670
 30
0.0
 11
154.986483
 21
244.496950
 31
0.0
  0
LINE
  5
13b
100
AcDbEntity
  8
Layer_1
 62
7
100
AcDbLine
 10
154.986483
 20
244.496950
 30
0.0
 11
155.170313
 21
245.967570
 31
0.0
  0
SPLINE
  5
13c
100
AcDbEntity
  8
Layer_1
 62
7
100
AcDbSpline
 70
8
 71
3
 72
8
 73
4
 74
0
 40
0
 40
0
 40
0
 40
0
 40
1
 40
1
 40
1
 40
1
 10
155.170313
 20
245.967570
 30
0.0
 10
156.350877
 20
254.005000
 30
0.0
 10
162.921740
 20
260.558511
 30
0.0
 10
170.948940
 20
261.746251
 30
0.0
  0
LINE
  5
13d
100
AcDbEntity
  8
Layer_1
 62
7
100
AcDbLine
 10
170.948940
 20
261.746251
 30
0.0
 11
172.419580
 21
261.930080
 31
0.0
  0
LINE
  5
13e
100
AcDbEntity
  8
Layer_1
 62
7
100
AcDbLine
 10
172.419580
 20
261.930080
 30
0.0
 11
173.920850
 21
261.991360
 31
0.0
  0
SPLINE
  5
13f
100
AcDbEntity
  8
Layer_1
 62
7
100
AcDbSpline
 70
8
 71
3
 72
8
 73
4
 74
0
 40
0
 40
0
 40
0
 40
0
 40
1
 40
1
 40
1
 40
1
 10
173.920850
 20
261.991360
 30
0.0
 10
182.695110
 20
261.984260
 30
0.0
 10
190.329640
 20
255.973490
 30
0.0
 10
192.365040
 20
247.438200
 30
0.0
  0
LINE
  5
140
100
AcDbEntity
  8
Layer_1
 62
7
100
AcDbLine
 10
192.365040
 20
247.438200
 30
0.0
 11
192.671420
 21
245.967570
 31
0.0
  0
LINE
  5
141
100
AcDbEntity
  8
Layer_1
 62
7
100
AcDbLine
 10
192.671420
 20
245.967570
 30
0.0
 11
192.824620
 21
244.496950
 31
0.0
  0
LINE
  5
142
100
AcDbEntity
  8
Layer_1
 62
7
100
AcDbLine
 10
192.824620
 20
244.496950
 30
0.0
 11
192.885760
 21
242.995670
 31
0.0
  0
LINE
  5
143
100
AcDbEntity
  8
Layer_1
 62
7
100
AcDbLine
 10
112.766897
 20
202.920920
 30
0.0
 11
112.705617
 21
201.450280
 31
0.0
  0
LINE
  5
144
100
AcDbEntity
  8
Layer_1
 62
7
100
AcDbLine
 10
112.705617
 20
201.450280
 30
0.0
 11
112.521789
 21
199.948990
 31
0.0
  0
SPLINE
  5
145
100
AcDbEntity
  8
Layer_1
 62
7
100
AcDbSpline
 70
8
 71
3
 72
8
 73
4
 74
0
 40
0
 40
0
 40
0
 40
0
 40
1
 40
1
 40
1
 40
1
 10
112.521789
 20
199.948990
 30
0.0
 10
108.169629
 20
177.821580
 30
0.0
 10
77.428287
 20
179.049180
 30
0.0
 10
74.836804
 20
201.450280
 30
0.0
  0
LINE
  5
146
100
AcDbEntity
  8
Layer_1
 62
7
100
AcDbLine
 10
74.836804
 20
201.450280
 30
0.0
 11
74.775524
 21
202.920920
 31
0.0
  0
LINE
  5
147
100
AcDbEntity
  8
Layer_1
 62
7
100
AcDbLine
 10
74.775524
 20
202.920920
 30
0.0
 11
74.836804
 21
204.422190
 31
0.0
  0
SPLINE
  5
148
100
AcDbEntity
  8
Layer_1
 62
7
100
AcDbSpline
 70
8
 71
3
 72
8
 73
4
 74
0
 40
0
 40
0
 40
0
 40
0
 40
1
 40
1
 40
1
 40
1
 10
74.836804
 20
204.422190
 30
0.0
 10
77.401221
 20
226.825370
 30
0.0
 10
108.242137
 20
228.028910
 30
0.0
 10
112.521786
 20
205.892810
 30
0.0
  0
LINE
  5
149
100
AcDbEntity
  8
Layer_1
 62
7
100
AcDbLine
 10
112.521786
 20
205.892810
 30
0.0
 11
112.705616
 21
204.422190
 31
0.0
  0
LINE
  5
14a
100
AcDbEntity
  8
Layer_1
 62
7
100
AcDbLine
 10
112.705616
 20
204.422190
 30
0.0
 11
112.766897
 21
202.920920
 31
0.0
  0
LINE
  5
14b
100
AcDbEntity
  8
Layer_1
 62
7
100
AcDbLine
 10
112.766897
 20
242.995670
 30
0.0
 11
112.705617
 21
241.525050
 31
0.0
  0
LINE
  5
14c
100
AcDbEntity
  8
Layer_1
 62
7
100
AcDbLine
 10
112.705617
 20
241.525050
 30
0.0
 11
112.521789
 21
240.023750
 31
0.0
  0
SPLINE
  5
14d
100
AcDbEntity
  8
Layer_1
 62
7
100
AcDbSpline
 70
8
 71
3
 72
8
 73
4
 74
0
 40
0
 40
0
 40
0
 40
0
 40
1
 40
1
 40
1
 40
1
 10
112.521789
 20
240.023750
 30
0.0
 10
108.169631
 20
217.896350
 30
0.0
 10
77.428289
 20
219.123930
 30
0.0
 10
74.836806
 20
241.525050
 30
0.0
  0
LINE
  5
14e
100
AcDbEntity
  8
Layer_1
 62
7
100
AcDbLine
 10
74.836806
 20
241.525050
 30
0.0
 11
74.775526
 21
242.995670
 31
0.0
  0
LINE
  5
14f
100
AcDbEntity
  8
Layer_1
 62
7
100
AcDbLine
 10
74.775526
 20
242.995670
 30
0.0
 11
74.836806
 21
244.496950
 31
0.0
  0
SPLINE
  5
150
100
AcDbEntity
  8
Layer_1
 62
7
100
AcDbSpline
 70
8
 71
3
 72
8
 73
4
 74
0
 40
0
 40
0
 40
0
 40
0
 40
1
 40
1
 40
1
 40
1
 10
74.836806
 20
244.496950
 30
0.0
 10
77.445139
 20
266.904192
 30
0.0
 10
108.196184
 20
268.108272
 30
0.0
 10
112.521788
 20
245.967570
 30
0.0
  0
LINE
  5
151
100
AcDbEntity
  8
Layer_1
 62
7
100
AcDbLine
 10
112.521788
 20
245.967570
 30
0.0
 11
112.705618
 21
244.496950
 31
0.0
  0
LINE
  5
152
100
AcDbEntity
  8
Layer_1
 62
7
100
AcDbLine
 10
112.705618
 20
244.496950
 30
0.0
 11
112.766897
 21
242.995670
 31
0.0
  0
ENDSEC
  0
SECTION
  2
OBJECTS
  0
DICTIONARY
  5
C
330
0
100
AcDbDictionary
  3
ACAD_GROUP
350
D
  3
ACAD_MLINESTYLE
350
17
  0
DICTIONARY
  5
D
330
C
100
AcDbDictionary
  0
DICTIONARY
  5
1A
330
C
100
AcDbDictionary
  0
DICTIONARY
  5
17
330
C
100
AcDbDictionary
  3
STANDARD
350
18
  0
DICTIONARY
  5
19
330
C
100
AcDbDictionary
  0
ENDSEC
  0
EOF
